<svg xmlns="http://www.w3.org/2000/svg" width="1440" height="698" viewBox="0 0 1440 698"><path d="M0,698V6.336H3a6.5,6.5,0,0,1,13,0h2a6.5,6.5,0,0,1,13,0h2a6.5,6.5,0,0,1,13,0h2a6.5,6.5,0,0,1,13,0h2a6.5,6.5,0,0,1,13,0h2a6.5,6.5,0,0,1,13,0h2a6.5,6.5,0,0,1,13,0h2a6.5,6.5,0,0,1,13,0h2a6.5,6.5,0,0,1,13,0h2a6.5,6.5,0,0,1,13,0h2a6.5,6.5,0,0,1,13,0h2a6.5,6.5,0,0,1,13,0h2a6.5,6.5,0,0,1,13,0h2a6.5,6.5,0,0,1,13,0h2a6.5,6.5,0,0,1,13,0h2a6.5,6.5,0,0,1,13,0h2a6.5,6.5,0,0,1,13,0h2a6.5,6.5,0,0,1,13,0h2a6.5,6.5,0,0,1,13,0h2a6.5,6.5,0,0,1,13,0h2a6.5,6.5,0,0,1,13,0h2a6.5,6.5,0,0,1,13,0h2a6.5,6.5,0,0,1,13,0h2a6.5,6.5,0,0,1,13,0h2a6.5,6.5,0,0,1,13,0h2a6.5,6.5,0,0,1,13,0h2a6.5,6.5,0,0,1,13,0h2a6.5,6.5,0,0,1,13,0h2a6.5,6.5,0,0,1,13,0h2a6.5,6.5,0,0,1,13,0h2a6.5,6.5,0,0,1,13,0h2a6.5,6.5,0,0,1,13,0h2a6.5,6.5,0,0,1,13,0h2a6.5,6.5,0,0,1,13,0h2a6.5,6.5,0,0,1,13,0h2a6.5,6.5,0,0,1,13,0h2a6.5,6.5,0,0,1,13,0h2a6.5,6.5,0,0,1,13,0h2a6.5,6.5,0,0,1,13,0h2a6.5,6.5,0,0,1,13,0h2a6.5,6.5,0,0,1,13,0h2a6.5,6.5,0,0,1,13,0h2a6.5,6.5,0,0,1,13,0h2a6.5,6.5,0,0,1,13,0h2a6.5,6.5,0,0,1,13,0h2a6.5,6.5,0,0,1,13,0h2a6.5,6.5,0,0,1,13,0h2a6.5,6.5,0,0,1,13,0h2a6.5,6.5,0,0,1,13,0h2a6.5,6.5,0,0,1,13,0h2a6.5,6.5,0,0,1,13,0h2a6.5,6.5,0,0,1,13,0h2a6.5,6.5,0,0,1,13,0h2a6.5,6.5,0,0,1,13,0h2a6.5,6.5,0,0,1,13,0h2a6.5,6.5,0,0,1,13,0h2a6.5,6.5,0,0,1,13,0h2a6.5,6.5,0,0,1,13,0h2a6.5,6.5,0,0,1,13,0h2a6.5,6.5,0,0,1,13,0h2a6.5,6.5,0,0,1,13,0h2a6.5,6.5,0,0,1,13,0h2a6.5,6.5,0,0,1,13,0h2a6.5,6.5,0,0,1,13,0h2a6.5,6.5,0,0,1,13,0h2a6.5,6.5,0,0,1,13,0h2a6.5,6.5,0,0,1,13,0h2a6.5,6.5,0,0,1,13,0h2a6.5,6.5,0,0,1,13,0h2a6.5,6.5,0,0,1,13,0h2a6.5,6.5,0,0,1,13,0h2a6.5,6.5,0,0,1,13,0h2a6.5,6.5,0,0,1,13,0h2a6.5,6.5,0,0,1,13,0h2a6.5,6.5,0,0,1,13,0h2a6.5,6.5,0,0,1,13,0h2a6.5,6.5,0,0,1,13,0h2a6.5,6.5,0,0,1,13,0h2a6.5,6.5,0,0,1,13,0h2a6.5,6.5,0,0,1,13,0h2a6.5,6.5,0,0,1,13,0h2a6.5,6.5,0,0,1,13,0h2a6.5,6.5,0,0,1,13,0h2a6.5,6.5,0,0,1,13,0h2a6.5,6.5,0,0,1,13,0h2a6.5,6.5,0,0,1,13,0h2a6.5,6.5,0,0,1,13,0h2a6.5,6.5,0,0,1,13,0h2a6.5,6.5,0,0,1,13,0h2a6.5,6.5,0,0,1,13,0h2a6.5,6.5,0,0,1,13,0h2a6.5,6.5,0,0,1,13,0h2a6.5,6.5,0,0,1,13,0h2a6.5,6.5,0,0,1,13,0h2a6.5,6.5,0,0,1,13,0h2a6.5,6.5,0,0,1,12-3.3V698Z" fill="#f1f2f2"/></svg>