<svg xmlns="http://www.w3.org/2000/svg" width="1440" height="668" viewBox="0 0 1440 668"><path d="M1428,661.5q0-.253.019-.5h-2.038q.019.248.019.5a6.5,6.5,0,1,1-13,0q0-.253.019-.5h-2.039q.019.248.019.5a6.5,6.5,0,1,1-13,0q0-.253.019-.5h-2.038q.019.248.019.5a6.5,6.5,0,0,1-13,0q0-.253.019-.5h-2.038q.019.248.019.5a6.5,6.5,0,1,1-13,0q0-.253.019-.5h-2.039q.019.248.019.5a6.5,6.5,0,1,1-13,0q0-.253.019-.5h-2.038q.019.248.019.5a6.5,6.5,0,0,1-13,0q0-.253.019-.5h-2.038q.019.248.019.5a6.5,6.5,0,1,1-13,0q0-.253.019-.5h-2.039q.019.248.019.5a6.5,6.5,0,1,1-13,0q0-.253.019-.5h-2.038q.019.248.019.5a6.5,6.5,0,0,1-13,0q0-.253.019-.5h-2.038q.019.248.019.5a6.5,6.5,0,1,1-13,0q0-.253.019-.5h-2.039q.019.248.019.5a6.5,6.5,0,1,1-13,0q0-.253.019-.5h-2.038q.019.248.019.5a6.5,6.5,0,0,1-13,0q0-.253.019-.5h-2.038q.019.248.019.5a6.5,6.5,0,1,1-13,0q0-.253.019-.5h-2.039q.019.248.019.5a6.5,6.5,0,1,1-13,0q0-.253.019-.5h-2.038q.019.248.019.5a6.5,6.5,0,0,1-13,0q0-.253.019-.5h-2.038q.019.248.019.5a6.5,6.5,0,1,1-13,0q0-.253.019-.5h-2.039q.019.248.019.5a6.5,6.5,0,1,1-13,0q0-.253.019-.5h-2.038q.019.248.019.5a6.5,6.5,0,0,1-13,0q0-.253.019-.5h-2.038q.019.248.019.5a6.5,6.5,0,1,1-13,0q0-.253.019-.5h-2.039q.019.248.019.5a6.5,6.5,0,1,1-13,0q0-.253.019-.5h-2.038q.019.248.019.5a6.5,6.5,0,0,1-13,0q0-.253.019-.5h-2.038q.019.248.019.5a6.5,6.5,0,1,1-13,0q0-.253.019-.5h-2.039q.019.248.019.5a6.5,6.5,0,1,1-13,0q0-.253.019-.5h-2.038q.019.248.019.5a6.5,6.5,0,0,1-13,0q0-.253.019-.5h-2.038q.019.248.019.5a6.5,6.5,0,1,1-13,0q0-.253.019-.5h-2.039q.019.248.019.5a6.5,6.5,0,1,1-13,0q0-.253.019-.5h-2.038q.019.248.019.5a6.5,6.5,0,0,1-13,0q0-.253.019-.5h-2.038q.019.248.019.5a6.5,6.5,0,0,1-13,0q0-.253.019-.5h-2.039q.019.248.019.5a6.5,6.5,0,0,1-13,0q0-.253.019-.5h-2.038q.019.248.019.5a6.5,6.5,0,0,1-13,0q0-.253.019-.5h-2.038q.019.248.019.5a6.5,6.5,0,0,1-13,0q0-.253.019-.5H960.98q.019.248.019.5a6.5,6.5,0,0,1-13,0q0-.253.019-.5h-2.038q.019.248.019.5a6.5,6.5,0,0,1-13,0q0-.253.019-.5h-2.038q.019.248.019.5a6.5,6.5,0,0,1-13,0q0-.253.019-.5H915.98q.019.248.019.5a6.5,6.5,0,0,1-13,0q0-.253.019-.5h-2.038q.019.248.019.5a6.5,6.5,0,0,1-13,0q0-.253.019-.5h-2.038q.019.248.019.5a6.5,6.5,0,0,1-13,0q0-.253.019-.5H870.98q.019.248.019.5a6.5,6.5,0,0,1-13,0q0-.253.019-.5h-2.038q.019.248.019.5a6.5,6.5,0,0,1-13,0q0-.253.019-.5h-2.038q.019.248.019.5a6.5,6.5,0,0,1-13,0q0-.253.019-.5H825.98q.019.248.019.5a6.5,6.5,0,0,1-13,0q0-.253.019-.5h-2.038q.019.248.019.5a6.5,6.5,0,0,1-13,0q0-.253.019-.5h-2.038q.019.248.019.5a6.5,6.5,0,0,1-13,0q0-.253.019-.5H780.98q.019.248.019.5a6.5,6.5,0,0,1-13,0q0-.253.019-.5h-2.038q.019.248.019.5a6.5,6.5,0,0,1-13,0q0-.253.019-.5h-2.038q.019.248.019.5a6.5,6.5,0,0,1-13,0q0-.253.019-.5H735.98q.019.248.019.5a6.5,6.5,0,0,1-13,0q0-.253.019-.5h-2.038q.019.248.019.5a6.5,6.5,0,0,1-13,0q0-.253.019-.5h-2.038q.019.248.019.5a6.5,6.5,0,0,1-13,0q0-.253.019-.5H690.98q.019.248.019.5a6.5,6.5,0,0,1-13,0q0-.253.019-.5h-2.038q.019.248.019.5a6.5,6.5,0,0,1-13,0q0-.253.019-.5h-2.038q.019.248.019.5a6.5,6.5,0,0,1-13,0q0-.253.019-.5H645.98q.019.248.019.5a6.5,6.5,0,0,1-13,0q0-.253.019-.5h-2.038q.019.248.019.5a6.5,6.5,0,0,1-13,0q0-.253.019-.5h-2.038q.019.248.019.5a6.5,6.5,0,0,1-13,0q0-.253.019-.5H600.98q.019.248.019.5a6.5,6.5,0,0,1-13,0q0-.253.019-.5h-2.038q.019.248.019.5a6.5,6.5,0,0,1-13,0q0-.253.019-.5h-2.038q.019.248.019.5a6.5,6.5,0,0,1-13,0q0-.253.019-.5H555.98q.019.248.019.5a6.5,6.5,0,0,1-13,0q0-.253.019-.5h-2.038q.019.248.019.5a6.5,6.5,0,0,1-13,0q0-.253.019-.5h-2.038q.019.248.019.5a6.5,6.5,0,0,1-13,0q0-.253.019-.5H510.98q.019.248.019.5a6.5,6.5,0,1,1-13,0q0-.253.019-.5h-2.038q.019.248.019.5a6.5,6.5,0,0,1-13,0q0-.253.019-.5h-2.038q.019.248.019.5a6.5,6.5,0,1,1-13,0q0-.253.019-.5H465.98q.019.248.019.5a6.5,6.5,0,1,1-13,0q0-.253.019-.5h-2.038q.019.248.019.5a6.5,6.5,0,0,1-13,0q0-.253.019-.5h-2.038q.019.248.019.5a6.5,6.5,0,1,1-13,0q0-.253.019-.5H420.98q.019.248.019.5a6.5,6.5,0,1,1-13,0q0-.253.019-.5h-2.038q.019.248.019.5a6.5,6.5,0,0,1-13,0q0-.253.019-.5h-2.038q.019.248.019.5a6.5,6.5,0,1,1-13,0q0-.253.019-.5H375.98q.019.248.019.5a6.5,6.5,0,1,1-13,0q0-.253.019-.5h-2.038q.019.248.019.5a6.5,6.5,0,0,1-13,0q0-.253.019-.5h-2.038q.019.248.019.5a6.5,6.5,0,1,1-13,0q0-.253.019-.5H330.98q.019.248.019.5a6.5,6.5,0,1,1-13,0q0-.253.019-.5h-2.038q.019.248.019.5a6.5,6.5,0,0,1-13,0q0-.253.019-.5h-2.038q.019.248.019.5a6.5,6.5,0,1,1-13,0q0-.253.019-.5H285.98q.019.248.019.5a6.5,6.5,0,1,1-13,0q0-.253.019-.5h-2.038q.019.248.019.5a6.5,6.5,0,0,1-13,0q0-.253.019-.5h-2.038q.019.248.019.5a6.5,6.5,0,1,1-13,0q0-.253.019-.5H240.98q.019.248.019.5a6.5,6.5,0,1,1-13,0q0-.253.019-.5h-2.038q.019.248.019.5a6.5,6.5,0,0,1-13,0q0-.253.019-.5h-2.038q.019.248.019.5a6.5,6.5,0,1,1-13,0q0-.253.019-.5H195.98q.019.248.019.5a6.5,6.5,0,1,1-13,0q0-.253.019-.5h-2.038q.019.248.019.5a6.5,6.5,0,0,1-13,0q0-.253.019-.5h-2.038q.019.248.019.5a6.5,6.5,0,1,1-13,0q0-.253.019-.5H150.98q.019.248.019.5a6.5,6.5,0,1,1-13,0q0-.253.019-.5h-2.038q.019.248.019.5a6.5,6.5,0,0,1-13,0q0-.253.019-.5h-2.038q.019.248.019.5a6.5,6.5,0,1,1-13,0q0-.253.019-.5H105.98q.019.248.019.5a6.5,6.5,0,1,1-13,0q0-.253.019-.5H90.981q.019.248.019.5a6.5,6.5,0,0,1-13,0q0-.253.019-.5H75.981q.019.248.019.5a6.5,6.5,0,1,1-13,0q0-.253.019-.5H60.98q.019.248.019.5a6.5,6.5,0,1,1-13,0q0-.253.019-.5H45.981q.019.248.019.5a6.5,6.5,0,0,1-13,0q0-.253.019-.5H30.981q.019.248.019.5a6.5,6.5,0,1,1-13,0q0-.253.019-.5H15.98q.019.248.019.5a6.5,6.5,0,1,1-13,0q0-.253.019-.5H0V6H3.019A6.5,6.5,0,0,1,15.98,6h2.039A6.5,6.5,0,0,1,30.981,6h2.038A6.5,6.5,0,0,1,45.981,6h2.038A6.5,6.5,0,0,1,60.98,6h2.039A6.5,6.5,0,0,1,75.981,6h2.038A6.5,6.5,0,0,1,90.981,6h2.038A6.5,6.5,0,0,1,105.98,6h2.039a6.5,6.5,0,0,1,12.962,0h2.038a6.5,6.5,0,0,1,12.963,0h2.038A6.5,6.5,0,0,1,150.98,6h2.039a6.5,6.5,0,0,1,12.962,0h2.038a6.5,6.5,0,0,1,12.963,0h2.038A6.5,6.5,0,0,1,195.98,6h2.039a6.5,6.5,0,0,1,12.962,0h2.038a6.5,6.5,0,0,1,12.963,0h2.038A6.5,6.5,0,0,1,240.98,6h2.039a6.5,6.5,0,0,1,12.962,0h2.038a6.5,6.5,0,0,1,12.963,0h2.038A6.5,6.5,0,0,1,285.98,6h2.039a6.5,6.5,0,0,1,12.962,0h2.038a6.5,6.5,0,0,1,12.963,0h2.038A6.5,6.5,0,0,1,330.98,6h2.039a6.5,6.5,0,0,1,12.962,0h2.038a6.5,6.5,0,0,1,12.963,0h2.038A6.5,6.5,0,0,1,375.98,6h2.039a6.5,6.5,0,0,1,12.962,0h2.038a6.5,6.5,0,0,1,12.963,0h2.038A6.5,6.5,0,0,1,420.98,6h2.039a6.5,6.5,0,0,1,12.962,0h2.038a6.5,6.5,0,0,1,12.963,0h2.038A6.5,6.5,0,0,1,465.98,6h2.039a6.5,6.5,0,0,1,12.962,0h2.038a6.5,6.5,0,0,1,12.963,0h2.038A6.5,6.5,0,0,1,510.98,6h2.039a6.5,6.5,0,0,1,12.962,0h2.038a6.5,6.5,0,0,1,12.963,0h2.038A6.5,6.5,0,0,1,555.98,6h2.039a6.5,6.5,0,0,1,12.962,0h2.038a6.5,6.5,0,0,1,12.963,0h2.038A6.5,6.5,0,0,1,600.98,6h2.039a6.5,6.5,0,0,1,12.962,0h2.038a6.5,6.5,0,0,1,12.963,0h2.038A6.5,6.5,0,0,1,645.98,6h2.039a6.5,6.5,0,0,1,12.962,0h2.038a6.5,6.5,0,0,1,12.963,0h2.038A6.5,6.5,0,0,1,690.98,6h2.039a6.5,6.5,0,0,1,12.962,0h2.038a6.5,6.5,0,0,1,12.963,0h2.038A6.5,6.5,0,0,1,735.98,6h2.039a6.5,6.5,0,0,1,12.962,0h2.038a6.5,6.5,0,0,1,12.963,0h2.038A6.5,6.5,0,0,1,780.98,6h2.039a6.5,6.5,0,0,1,12.962,0h2.038a6.5,6.5,0,0,1,12.963,0h2.038A6.5,6.5,0,0,1,825.98,6h2.039a6.5,6.5,0,0,1,12.962,0h2.038a6.5,6.5,0,0,1,12.963,0h2.038A6.5,6.5,0,0,1,870.98,6h2.039a6.5,6.5,0,0,1,12.962,0h2.038a6.5,6.5,0,0,1,12.963,0h2.038A6.5,6.5,0,0,1,915.98,6h2.039a6.5,6.5,0,0,1,12.962,0h2.038a6.5,6.5,0,0,1,12.963,0h2.038A6.5,6.5,0,0,1,960.98,6h2.039a6.5,6.5,0,0,1,12.962,0h2.038a6.5,6.5,0,0,1,12.963,0h2.038a6.5,6.5,0,0,1,12.962,0h2.039a6.5,6.5,0,0,1,12.962,0h2.038a6.5,6.5,0,0,1,12.963,0h2.038a6.5,6.5,0,0,1,12.962,0h2.038a6.5,6.5,0,0,1,12.962,0h2.038a6.5,6.5,0,0,1,12.963,0h2.038a6.5,6.5,0,0,1,12.962,0h2.038a6.5,6.5,0,0,1,12.962,0h2.038a6.5,6.5,0,0,1,12.963,0h2.038a6.5,6.5,0,0,1,12.962,0h2.038a6.5,6.5,0,0,1,12.962,0h2.038a6.5,6.5,0,0,1,12.963,0h2.038a6.5,6.5,0,0,1,12.962,0h2.038a6.5,6.5,0,0,1,12.962,0h2.038a6.5,6.5,0,0,1,12.963,0h2.038a6.5,6.5,0,0,1,12.962,0h2.038a6.5,6.5,0,0,1,12.962,0h2.038a6.5,6.5,0,0,1,12.963,0h2.038a6.5,6.5,0,0,1,12.962,0h2.038a6.5,6.5,0,0,1,12.962,0h2.038a6.5,6.5,0,0,1,12.963,0h2.038a6.5,6.5,0,0,1,12.962,0h2.038a6.5,6.5,0,0,1,12.962,0h2.038a6.5,6.5,0,0,1,12.963,0h2.038a6.5,6.5,0,0,1,12.962,0h2.038a6.5,6.5,0,0,1,12.962,0h2.038a6.5,6.5,0,0,1,12.963,0h2.038a6.5,6.5,0,0,1,12.962,0h2.038a6.5,6.5,0,0,1,12.962,0h2.038A6.5,6.5,0,0,1,1440,3.035v661.93a6.5,6.5,0,0,1-12-3.465Z" fill="#f9a848"/></svg>