<svg xmlns="http://www.w3.org/2000/svg" width="78" height="74.718" viewBox="0 0 78 74.718"><g transform="translate(-854 -2136.463)"><path d="M327.995,319.8a19.619,19.619,0,0,0,2.956-9.818,18.965,18.965,0,0,0-1.964-8.464,14.578,14.578,0,0,0-1.385-2.237c-2.526-3.448-6.246-6.581-8.184-10.555-2.385-4.9-3.346-9.77-5.813-14.161-5.113-9.1-13.923-14.51-17.924-15.1a17.523,17.523,0,0,0-9.593,1.643,35.019,35.019,0,0,0-9.97,7.041,63.262,63.262,0,0,0-4.819,5.263,59.832,59.832,0,0,0-7.836,12.232c-3.133,6.61-4.882,14.034-3.9,21.283a21.586,21.586,0,0,0,1.382,5.33,23.854,23.854,0,0,0,3.55,5.724,39.542,39.542,0,0,0,6.64,6.484,47.213,47.213,0,0,0,30.442,9.542C315.17,333.5,323.964,326.458,327.995,319.8Z" transform="translate(601.047 1877.134)" fill="#d2e3fe"/><g transform="translate(854 2144.616)"><g transform="translate(0 0)"><path d="M54.955,9.429A32.192,32.192,0,1,0,9.429,54.955,32.192,32.192,0,1,0,54.955,9.429ZM32.192,61.869A29.677,29.677,0,1,1,61.869,32.192,29.71,29.71,0,0,1,32.192,61.869Z" transform="translate(0 0)" fill="#f9a848"/><path d="M90.752,53.222a26.471,26.471,0,0,0-33.635-3.155,1.258,1.258,0,0,0,1.419,2.076,23.955,23.955,0,1,1-6.434,6.5,1.257,1.257,0,0,0-2.091-1.4,26.473,26.473,0,1,0,40.74-4.023Z" transform="translate(-39.843 -39.748)" fill="#f9a848"/><path d="M104.867,107.127a1.253,1.253,0,0,0,.892-.371l.027-.027.008-.008a1.258,1.258,0,0,0-1.784-1.773l-.035.036a1.257,1.257,0,0,0,.892,2.144Z" transform="translate(-90.58 -91.428)" fill="#f9a848"/><path d="M397.91,248.7a1.257,1.257,0,0,0,0-2.515h-1.776a1.257,1.257,0,1,0,0,2.515Z" transform="translate(-345.221 -215.228)" fill="#f9a848"/><path d="M84.257,245.814a1.257,1.257,0,0,0,0,2.515h1.776a1.257,1.257,0,0,0,0-2.515Z" transform="translate(-72.563 -214.903)" fill="#f9a848"/><path d="M245.814,396.133v1.776a1.257,1.257,0,0,0,2.515,0v-1.776a1.257,1.257,0,1,0-2.515,0Z" transform="translate(-214.903 -345.221)" fill="#f9a848"/><path d="M248.329,86.406V84.63a1.257,1.257,0,0,0-2.515,0v1.776a1.257,1.257,0,1,0,2.515,0Z" transform="translate(-214.903 -72.889)" fill="#f9a848"/><path d="M347.874,306.552a18.609,18.609,0,0,1-5.473,7.379c-.155.126-.314.25-.472.37a1.258,1.258,0,0,0,1.52,2c.18-.137.361-.278.537-.421a21.13,21.13,0,0,0,6.215-8.379,1.258,1.258,0,0,0-2.327-.953Z" transform="translate(-298.497 -267.321)" fill="#f9a848"/><path d="M308.338,393.588a1.253,1.253,0,0,0,.487-.1l.107-.045a1.258,1.258,0,0,0-.985-2.314l-.1.041a1.258,1.258,0,0,0,.488,2.417Z" transform="translate(-268.464 -341.858)" fill="#f9a848"/><path d="M142.109,203.97a1.257,1.257,0,0,0,1.778,0l9.838-9.838a4.778,4.778,0,1,0,.015-8.286l-4.979-4.979a1.258,1.258,0,1,0-1.778,1.778l4.979,4.979a4.761,4.761,0,0,0-.009,4.723l-9.844,9.844A1.258,1.258,0,0,0,142.109,203.97Zm16.263-13.976a2.263,2.263,0,1,1-2.263-2.263A2.266,2.266,0,0,1,158.372,189.993Z" transform="translate(-123.917 -157.802)" fill="#f9a848"/></g></g></g></svg>