<svg xmlns="http://www.w3.org/2000/svg" width="94" height="85.808" viewBox="0 0 94 85.808"><g transform="translate(-310.283 -2340.372)"><path d="M39.7,317.837c2.991,10.691,11.48,20.039,22.27,22.647a28.033,28.033,0,0,0,27.518-9.119c4.408-5.3,3.846-17.15,11.84-22.2s19.883-4.537,24.126-10.264c4.787-6.461,3.184-16.106-1.961-22.286s-13-9.45-20.82-11.338a82.364,82.364,0,0,0-17.883-2.289c-9.249-.163-18.808,1.353-26.614,6.317a42,42,0,0,0-14.28,16.28C38.772,295.436,36.708,307.147,39.7,317.837Z" transform="translate(271.968 2084.974)" fill="#fff0a9"/><g transform="translate(319.284 2306.123)"><g transform="translate(55.091 34.249)"><path d="M338.422,36.628a1.245,1.245,0,0,0-1.571-.8l-.442.145v-.484a1.245,1.245,0,0,0-2.49,0v.484l-.442-.145A1.245,1.245,0,1,0,332.7,38.2l.459.151-.289.4a1.247,1.247,0,0,0,1.009,1.973c.726,0,1.008-.513,1.284-.9l.272.378a1.245,1.245,0,1,0,2.021-1.455l-.289-.4.459-.151A1.245,1.245,0,0,0,338.422,36.628Z" transform="translate(-331.843 -34.249)" fill="#f9a848"/></g><g transform="translate(67.404 47.614)"><path d="M412.585,117.133a1.245,1.245,0,0,0-1.571-.8l-.442.145V116a1.245,1.245,0,0,0-2.49,0v.484l-.442-.145a1.245,1.245,0,1,0-.776,2.366l.459.151-.289.4a1.245,1.245,0,0,0,2.021,1.455l.272-.378c.262.363.548.9,1.284.9a1.247,1.247,0,0,0,1.01-1.973l-.289-.4.459-.151A1.245,1.245,0,0,0,412.585,117.133Z" transform="translate(-406.007 -114.754)" fill="#f9a848"/></g><g transform="translate(56.113 45.87)"><g transform="translate(0 0)"><circle cx="1.245" cy="1.245" r="1.245" fill="#f9a848"/></g></g><g transform="translate(76.035 66.026)"><circle cx="1.245" cy="1.245" r="1.245" fill="#f9a848"/></g><g transform="translate(63.086 56.495)"><circle cx="1.245" cy="1.245" r="1.245" fill="#f9a848"/></g><g transform="translate(76.535 40.226)"><g transform="translate(0 0)"><circle cx="1.245" cy="1.245" r="1.245" fill="#f9a848"/></g></g><g transform="translate(39.597 45.244)"><g transform="translate(0 0)"><path d="M253.69,105.292a2.477,2.477,0,0,0-1.567-.883,1.246,1.246,0,0,0-.359,2.465l-2.221,2.165a1.245,1.245,0,0,0-.359,1.1l.525,3.058h0c-3.658-1.925-3.015-1.912-6.646,0h0l0,0,.525-3.058a1.249,1.249,0,0,0-.357-1.1L241,106.874l3.071-.446a1.246,1.246,0,0,0,.936-.681l1.375-2.782.541,1.1a1.246,1.246,0,1,0,2.234-1.1l-.543-1.1a2.492,2.492,0,0,0-4.468,0l-1.082,2.195c-2.47.359-3.242.308-3.991,1.235a2.492,2.492,0,0,0-.564,1.589c-.01,1.291.745,1.768,2.505,3.485l-.413,2.414a2.48,2.48,0,0,0,.717,2.2,2.493,2.493,0,0,0,1.74.709c.777,0,1.051-.233,3.322-1.428h0l2.167,1.139a2.493,2.493,0,0,0,3.649-2.2,2.446,2.446,0,0,0-.037-.428l-.413-2.414,1.753-1.708A2.487,2.487,0,0,0,253.69,105.292Z" transform="translate(-238.511 -100.475)" fill="#f9a848"/></g></g><g transform="translate(0 61.346)"><g transform="translate(0)"><path d="M83.755,208.3H67.182l.591-.576a2.805,2.805,0,0,0-1.554-4.784l-3.2-.465-1.43-2.9a2.8,2.8,0,0,0-5.03,0l-1.43,2.9-3.2.465a2.805,2.805,0,0,0-1.554,4.784l.591.576H46.515a2.487,2.487,0,0,0-.715-2.014l-7.043-7.043a2.493,2.493,0,0,0-3.522,0L30.9,203.58l-4.773-4.773a4.565,4.565,0,0,0-7.638,2.046l-2.5,9.315a6.185,6.185,0,0,0-3.293,3.293l-9.315,2.5A4.565,4.565,0,0,0,1.34,223.6l4.773,4.773L1.78,232.7a2.489,2.489,0,0,0,0,3.522l7.043,7.044a2.493,2.493,0,0,0,3.522,0l32.473-32.474H82.509v29.468a1.251,1.251,0,0,1-1.245,1.245h-42a1.251,1.251,0,0,1-1.245-1.245V224.382a1.245,1.245,0,0,0-2.49,0v15.883A3.735,3.735,0,0,0,39.263,244h42A3.734,3.734,0,0,0,85,240.262V209.549A1.248,1.248,0,0,0,83.755,208.3ZM20.9,201.5a2.075,2.075,0,0,1,3.472-.93l4.773,4.773L23.385,211.1l1.5-5.607a1.245,1.245,0,1,0-2.405-.645l-1.446,5.4a6.181,6.181,0,0,0-2.331-.566Zm-3.518,10.815a3.717,3.717,0,0,1,3.768,1.022l-5.277,5.277A3.735,3.735,0,0,1,17.378,212.313ZM3.1,221.835a2.075,2.075,0,0,1,.93-3.472l8.178-2.191a6.186,6.186,0,0,0,.566,2.331l-5.4,1.446a1.245,1.245,0,0,0,.644,2.406l5.607-1.5-5.756,5.756Zm7.483,19.672L3.54,234.464l5.214-5.214h0l23.027-23.028h0L37,201.007l7.044,7.042Zm55.452-35.562-2.42,2.359H54.537c-2.6-2.537-2.583-2.426-2.5-2.681s-.039-.171,4.1-.773a1.244,1.244,0,0,0,.937-.681c1.857-3.762,1.733-3.66,2-3.66s.145-.1,2,3.66a1.245,1.245,0,0,0,.938.681l3.846.559A.313.313,0,0,1,66.035,205.945Z" transform="translate(0 -197.466)" fill="#f9a848"/></g></g></g></g></svg>