<svg xmlns="http://www.w3.org/2000/svg" width="90" height="78.227" viewBox="0 0 90 78.227"><g transform="translate(-308.855 -1780.953)"><path d="M39.7,317.837c2.991,10.691,11.48,20.039,22.27,22.647a28.033,28.033,0,0,0,27.518-9.119c4.408-5.3,3.846-17.15,11.84-22.2s19.883-4.537,24.126-10.264c4.787-6.461,3.184-16.106-1.961-22.286s-13-9.45-20.82-11.338a82.364,82.364,0,0,0-17.883-2.289c-9.249-.163-18.808,1.353-26.614,6.317a42,42,0,0,0-14.28,16.28C38.772,295.436,36.708,307.147,39.7,317.837Z" transform="translate(270.541 1517.974)" fill="#d2e3fe"/><g transform="translate(323.856 1784.181)"><path d="M32.5,65A32.3,32.3,0,0,1,14.424,59.51L4.22,62.244a1.27,1.27,0,0,1-1.555-1.555L5.408,50.454a32.5,32.5,0,0,1,45.851-44.5,1.269,1.269,0,1,1-1.467,2.072A29.963,29.963,0,0,0,7.829,49.5a1.27,1.27,0,0,1,.182,1.05L5.687,59.222l8.643-2.316a1.27,1.27,0,0,1,1.055.185A29.963,29.963,0,0,0,56.722,14.862a1.27,1.27,0,0,1,2.051-1.5A32.5,32.5,0,0,1,32.5,65Zm0,0" fill="#ea3f40" stroke="#ea3f40" stroke-width="1"/><path d="M160.6,189.195a1.27,1.27,0,0,1-1.27-1.27,1.129,1.129,0,1,0-2.257,0,1.27,1.27,0,1,1-2.539,0,3.668,3.668,0,1,1,7.335,0A1.269,1.269,0,0,1,160.6,189.195Zm0,0" transform="translate(-134.92 -160.866)" fill="#ea3f40" stroke="#ea3f40" stroke-width="1"/><path d="M312.039,189.195a1.269,1.269,0,0,1-1.27-1.27,1.129,1.129,0,0,0-2.257,0,1.27,1.27,0,0,1-2.539,0,3.668,3.668,0,1,1,7.335,0A1.269,1.269,0,0,1,312.039,189.195Zm0,0" transform="translate(-267.129 -160.866)" fill="#ea3f40" stroke="#ea3f40" stroke-width="1"/><path d="M202.673,306.907a8.221,8.221,0,0,1-8.212-8.212,1.27,1.27,0,1,1,2.539,0,5.673,5.673,0,0,0,11.346,0,1.27,1.27,0,1,1,2.539,0A8.222,8.222,0,0,1,202.673,306.907Zm0,0" transform="translate(-169.773 -259.667)" fill="#ea3f40" stroke="#ea3f40" stroke-width="1"/><path d="M420.3,73.68a1.271,1.271,0,1,1,.9-.372A1.279,1.279,0,0,1,420.3,73.68Zm0,0" transform="translate(-365.834 -62.11)" fill="#ea3f40" stroke="#ea3f40" stroke-width="1"/></g></g></svg>