<svg xmlns="http://www.w3.org/2000/svg" width="80.25" height="74.717" viewBox="0 0 80.25 74.717"><g transform="translate(-854.75 -1569.463)"><path d="M327.995,319.8a19.619,19.619,0,0,0,2.956-9.818,18.965,18.965,0,0,0-1.964-8.464,14.578,14.578,0,0,0-1.385-2.237c-2.526-3.448-6.246-6.581-8.184-10.555-2.385-4.9-3.346-9.77-5.813-14.161-5.113-9.1-13.923-14.51-17.924-15.1a17.523,17.523,0,0,0-9.593,1.643,35.019,35.019,0,0,0-9.97,7.041,63.262,63.262,0,0,0-4.819,5.263,59.832,59.832,0,0,0-7.836,12.232c-3.133,6.61-4.882,14.034-3.9,21.283a21.586,21.586,0,0,0,1.382,5.33,23.854,23.854,0,0,0,3.55,5.724,39.542,39.542,0,0,0,6.64,6.484,47.213,47.213,0,0,0,30.442,9.542C315.17,333.5,323.964,326.458,327.995,319.8Z" transform="translate(604.047 1310.134)" fill="#abece0"/><g transform="translate(855 1581.116)"><path d="M136.535,356.6a1.017,1.017,0,0,1,1.018-1.018h3.053v-13.23a1.017,1.017,0,0,1,1.018-1.018h6.106a1.017,1.017,0,0,1,1.018,1.018v13.23H151.8a1.017,1.017,0,0,1,1.018,1.018v3.053h5.089a1.018,1.018,0,1,1,0,2.035H151.8a1.017,1.017,0,0,1-1.018-1.018v-3.053h-13.23A1.017,1.017,0,0,1,136.535,356.6Zm6.106-8.142h1.018a1.018,1.018,0,0,1,0,2.035h-1.018v5.089h4.071V343.369h-4.071Z" transform="translate(-114.145 -300.625)" fill="#ea3f40" stroke="#ea3f40" stroke-width="0.5"/><path d="M366.542,350.493a1.017,1.017,0,0,1-1.018,1.018h-6.106a1.017,1.017,0,0,1-1.018-1.018v-8.142a1.017,1.017,0,0,1,1.018-1.018h6.106a1.017,1.017,0,0,1,1.018,1.018Zm-2.035-7.124h-4.071V345.4h4.071Zm0,4.071h-4.071v2.036h4.071Z" transform="translate(-348.223 -300.624)" fill="#ea3f40" stroke="#ea3f40" stroke-width="0.5"/><path d="M394.57,130.3V86.352a1.018,1.018,0,0,1,2.035,0v43.117a4.057,4.057,0,0,1,6.6.691,2.994,2.994,0,0,1,.523-.046,3.053,3.053,0,0,1,0,6.106h-8.142a3.046,3.046,0,0,1-1.018-5.919Zm1.018,3.884h8.142a1.018,1.018,0,0,0,0-2.035,1.008,1.008,0,0,0-.552.166,1.019,1.019,0,0,1-1.544-.626,2.026,2.026,0,0,0-3.951,0,1.019,1.019,0,0,1-1.544.626,1.038,1.038,0,0,0-1.569.852A1.018,1.018,0,0,0,395.587,134.185Z" transform="translate(-392.534 -75.157)" fill="#ea3f40" stroke="#ea3f40" stroke-width="0.5"/><path d="M1.018,2.036H9.16a1.017,1.017,0,0,1,1.018-1.018A1.017,1.017,0,0,1,11.195,0h4.071a1.017,1.017,0,0,1,1.018,1.018V2.036h2.036V1.018A1.017,1.017,0,0,1,19.337,0h4.07a1.017,1.017,0,0,1,1.018,1.018V2.035H44.78V1.018A1.017,1.017,0,0,1,45.8,0h4.071a1.017,1.017,0,0,1,1.018,1.018V2.035h9.16a1.018,1.018,0,0,1,0,2.036H49.869a1.017,1.017,0,0,1-1.018-1.018V2.036H46.816V3.053A1.017,1.017,0,0,1,45.8,4.071H23.407a1.017,1.017,0,0,1-1.018-1.018V2.036H20.355V3.053a1.017,1.017,0,0,1-1.018,1.018H15.266a1.017,1.017,0,0,1-1.018-1.018V2.036H13.231a1.017,1.017,0,0,1-1.018,1.018A1.017,1.017,0,0,1,11.2,4.071H2.036V6.106H58.011a1.017,1.017,0,0,1,1.018,1.018V55.145a3.046,3.046,0,0,1-1.018,5.919H49.869a3.053,3.053,0,1,1,0-6.106,2.993,2.993,0,0,1,.523.046,4.057,4.057,0,0,1,6.6-.691V8.142H1.018A1.017,1.017,0,0,1,0,7.124V3.053A1.017,1.017,0,0,1,1.018,2.036ZM56.525,57.246a1.021,1.021,0,0,1-.61-.713,2.026,2.026,0,0,0-3.951,0,1.019,1.019,0,0,1-1.544.626,1.038,1.038,0,0,0-1.569.852,1.019,1.019,0,0,0,1.018,1.018h8.142a1.018,1.018,0,1,0,0-2.035,1.008,1.008,0,0,0-.552.166A1.018,1.018,0,0,1,56.525,57.246Z" fill="#ea3f40" stroke="#ea3f40" stroke-width="0.5"/><path d="M93.475,231.027a1.017,1.017,0,0,1-1.018,1.018H86.351a1.017,1.017,0,0,1-1.018-1.018v-8.142a1.017,1.017,0,0,1,1.018-1.018h6.106a1.017,1.017,0,0,1,1.018,1.018ZM91.439,223.9H87.368v2.036h4.071Zm0,4.071H87.368v2.036h4.071Z" transform="translate(-42.588 -195.406)" fill="#ea3f40" stroke="#ea3f40" stroke-width="0.5"/><path d="M228.991,112.577h-6.106a1.017,1.017,0,0,1-1.018-1.018v-8.142a1.017,1.017,0,0,1,1.018-1.018h6.106a1.017,1.017,0,0,1,1.018,1.018v8.142A1.017,1.017,0,0,1,228.991,112.577Zm-1.018-8.142H223.9v2.035h4.071Zm0,4.071H223.9v2.035h4.071Z" transform="translate(-195.406 -90.187)" fill="#ea3f40" stroke="#ea3f40" stroke-width="0.5"/><path d="M222.885,494.933h16.284a1.018,1.018,0,1,1,0,2.035H222.885a1.018,1.018,0,1,1,0-2.035Z" transform="translate(-205.583 -435.905)" fill="#ea3f40" stroke="#ea3f40" stroke-width="0.5"/><path d="M366.542,231.027a1.017,1.017,0,0,1-1.018,1.018h-6.106a1.017,1.017,0,0,1-1.018-1.018v-8.142a1.017,1.017,0,0,1,1.018-1.018h6.106a1.017,1.017,0,0,1,1.018,1.018Zm-2.035-7.124h-4.071v2.036h4.071Zm0,4.071h-4.071v2.036h4.071Z" transform="translate(-348.223 -195.406)" fill="#ea3f40" stroke="#ea3f40" stroke-width="0.5"/><path d="M92.458,112.577H86.352a1.017,1.017,0,0,1-1.018-1.018v-8.142a1.017,1.017,0,0,1,1.018-1.018h6.106a1.017,1.017,0,0,1,1.018,1.018v8.142A1.017,1.017,0,0,1,92.458,112.577Zm-1.018-8.142H87.37v2.035H91.44Zm0,4.071H87.37v2.035H91.44Z" transform="translate(-42.589 -90.187)" fill="#ea3f40" stroke="#ea3f40" stroke-width="0.5"/><path d="M93.475,350.493a1.017,1.017,0,0,1-1.018,1.018H86.351a1.017,1.017,0,0,1-1.018-1.018v-8.142a1.017,1.017,0,0,1,1.018-1.018h6.106a1.017,1.017,0,0,1,1.018,1.018Zm-2.035-7.124H87.368V345.4h4.071Zm0,4.071H87.368v2.036h4.071Z" transform="translate(-42.588 -300.624)" fill="#ea3f40" stroke="#ea3f40" stroke-width="0.5"/><path d="M365.524,112.577h-6.106a1.017,1.017,0,0,1-1.018-1.018v-8.142a1.017,1.017,0,0,1,1.018-1.018h6.106a1.017,1.017,0,0,1,1.018,1.018v8.142A1.017,1.017,0,0,1,365.524,112.577Zm-1.018-8.142h-4.071v2.035h4.071Zm0,4.071h-4.071v2.035h4.071Z" transform="translate(-348.223 -90.187)" fill="#ea3f40" stroke="#ea3f40" stroke-width="0.5"/><path d="M230.009,231.027a1.017,1.017,0,0,1-1.018,1.018h-6.106a1.017,1.017,0,0,1-1.018-1.018v-8.142a1.017,1.017,0,0,1,1.018-1.018h6.106a1.017,1.017,0,0,1,1.018,1.018Zm-2.035-7.124H223.9v2.036h4.071Zm0,4.071H223.9v2.036h4.071Z" transform="translate(-195.406 -195.406)" fill="#ea3f40" stroke="#ea3f40" stroke-width="0.5"/></g></g></svg>