<svg xmlns="http://www.w3.org/2000/svg" width="62.071" height="64.717" viewBox="0 0 62.071 64.717"><g transform="translate(-225.335 -3952)"><path d="M261.853,311.707a16.993,16.993,0,0,1-2.561-8.5,16.426,16.426,0,0,1,1.7-7.331,12.629,12.629,0,0,1,1.2-1.938c2.188-2.986,5.41-5.7,7.088-9.142,2.065-4.241,2.9-8.462,5.035-12.266,4.429-7.886,12.06-12.568,15.526-13.076a15.178,15.178,0,0,1,8.309,1.423,30.332,30.332,0,0,1,8.636,6.1,54.8,54.8,0,0,1,4.174,4.559,51.823,51.823,0,0,1,6.787,10.595c2.714,5.726,4.229,12.155,3.374,18.434a18.7,18.7,0,0,1-1.2,4.617,20.662,20.662,0,0,1-3.075,4.958,34.25,34.25,0,0,1-5.751,5.617,40.894,40.894,0,0,1-26.368,8.265C272.961,323.571,265.344,317.473,261.853,311.707Z" transform="translate(-33.956 3692.672)" fill="#f8d6d5"/><g transform="translate(228.079 3969.444)"><g transform="translate(0 0)"><g transform="translate(0 0)"><path d="M36.447,47.065H5.56A5.564,5.564,0,0,0,0,52.623V75.788A5.564,5.564,0,0,0,5.56,81.346H36.447A5.564,5.564,0,0,0,42,75.788V52.623A5.564,5.564,0,0,0,36.447,47.065Zm2.164,28.723a2.167,2.167,0,0,1-2.164,2.164H5.56A2.167,2.167,0,0,1,3.4,75.788V52.623A2.167,2.167,0,0,1,5.56,50.458H36.447a2.167,2.167,0,0,1,2.164,2.164Z" transform="translate(-0.002 -47.065)" fill="#ea3f40"/></g></g><g transform="translate(0 3.861)"><g transform="translate(0 0)"><path d="M41.7,94.849a1.7,1.7,0,0,0-2.363-.417L21,107.264,2.671,94.432a1.7,1.7,0,0,0-1.946,2.78l19.3,13.513a1.7,1.7,0,0,0,1.946,0l19.3-13.513A1.7,1.7,0,0,0,41.7,94.849Z" transform="translate(-0.001 -94.125)" fill="#ea3f40"/></g></g></g></g></svg>