<svg xmlns="http://www.w3.org/2000/svg" width="71.662" height="74.717" viewBox="0 0 71.662 74.717"><g transform="translate(-850 -1774.463)"><path d="M262.249,319.8a19.619,19.619,0,0,1-2.956-9.818,18.965,18.965,0,0,1,1.964-8.464,14.578,14.578,0,0,1,1.385-2.237c2.526-3.448,6.246-6.581,8.184-10.555,2.385-4.9,3.346-9.77,5.813-14.161,5.113-9.1,13.923-14.51,17.924-15.1a17.523,17.523,0,0,1,9.593,1.643,35.019,35.019,0,0,1,9.97,7.041,63.262,63.262,0,0,1,4.819,5.263,59.831,59.831,0,0,1,7.836,12.232c3.133,6.61,4.882,14.034,3.9,21.283a21.585,21.585,0,0,1-1.382,5.33,23.854,23.854,0,0,1-3.55,5.724,39.542,39.542,0,0,1-6.64,6.484,47.213,47.213,0,0,1-30.442,9.542C275.073,333.5,266.279,326.457,262.249,319.8Z" transform="translate(590.709 1515.134)" fill="#f8d6d5"/><g transform="translate(855 1784.18)"><path d="M322.539,107.27a1.27,1.27,0,1,1-1.27-1.27A1.269,1.269,0,0,1,322.539,107.27Zm0,0" transform="translate(-279.375 -92.543)" fill="#ea3f40"/><path d="M322.539,147.27a1.27,1.27,0,1,1-1.27-1.27A1.269,1.269,0,0,1,322.539,147.27Zm0,0" transform="translate(-279.375 -127.465)" fill="#ea3f40"/><path d="M49.512,0H3.809A3.813,3.813,0,0,0,0,3.809v52.3a3.813,3.813,0,0,0,3.809,3.809h1.27V63.73A1.269,1.269,0,0,0,6.348,65H16.5a1.269,1.269,0,0,0,1.27-1.27V59.922H35.547V63.73A1.269,1.269,0,0,0,36.816,65H46.973a1.269,1.269,0,0,0,1.27-1.27V59.922h1.27a3.813,3.813,0,0,0,3.809-3.809V3.809A3.813,3.813,0,0,0,49.512,0ZM3.809,2.539h45.7a1.271,1.271,0,0,1,1.27,1.27v4.57H2.539V3.809A1.271,1.271,0,0,1,3.809,2.539ZM38.086,26.152H45.7v12.7H38.086ZM45.7,23.613H38.086v-12.7H45.7ZM22.852,38.848V32.5a1.27,1.27,0,1,1,2.539,0v6.348Zm1.27-10.156A3.813,3.813,0,0,0,20.313,32.5v6.348H17.773V35.039a3.809,3.809,0,1,0-7.617,0v3.809H7.617v-12.7H30.469v12.7H27.93V32.5A3.813,3.813,0,0,0,24.121,28.691ZM12.7,38.848V35.039a1.27,1.27,0,0,1,2.539,0v3.809Zm2.539-15.234H12.7V17.266a1.27,1.27,0,1,1,2.539,0Zm10.156,0H22.852V19.8a1.27,1.27,0,0,1,2.539,0Zm5.078,0H27.93V19.8a3.809,3.809,0,1,0-7.617,0v3.809H17.773V17.266a3.809,3.809,0,1,0-7.617,0v6.348H7.617v-12.7H30.469ZM15.234,62.461H7.617V59.922h7.617Zm30.469,0H38.086V59.922H45.7Zm3.809-5.078H3.809a1.271,1.271,0,0,1-1.27-1.27v-45.2H5.078v29.2a1.269,1.269,0,0,0,1.27,1.27H31.738a1.269,1.269,0,0,0,1.27-1.27v-29.2h2.539v29.2a1.269,1.269,0,0,0,1.27,1.27H46.973a1.269,1.269,0,0,0,1.27-1.27v-29.2h2.539v45.2A1.271,1.271,0,0,1,49.512,57.383Zm0,0" fill="#ea3f40"/><path d="M81.895,346H41.27A1.269,1.269,0,0,0,40,347.27v8.379a1.269,1.269,0,0,0,1.27,1.27h14.6a1.27,1.27,0,0,0,0-2.539H42.539v-5.84H80.625v5.84H67.295a1.27,1.27,0,0,0,0,2.539h14.6a1.269,1.269,0,0,0,1.27-1.27V347.27A1.269,1.269,0,0,0,81.895,346Zm0,0" transform="translate(-34.922 -302.074)" fill="#ea3f40"/><path d="M202.539,413.27a1.27,1.27,0,1,1-1.27-1.27A1.269,1.269,0,0,1,202.539,413.27Zm0,0" transform="translate(-174.609 -359.695)" fill="#ea3f40"/><path d="M321.27,226a1.269,1.269,0,0,0-1.27,1.27v5.078a1.27,1.27,0,0,0,2.539,0V227.27A1.269,1.269,0,0,0,321.27,226Zm0,0" transform="translate(-279.375 -197.309)" fill="#ea3f40"/></g></g></svg>