<svg xmlns="http://www.w3.org/2000/svg" xmlns:xlink="http://www.w3.org/1999/xlink" width="50" height="50" viewBox="0 0 50 50"><defs><linearGradient id="a" x1="0.5" y1="1" x2="0.5" gradientUnits="objectBoundingBox"><stop offset="0" stop-color="#e09b3d"/><stop offset="0.3" stop-color="#c74c4d"/><stop offset="0.6" stop-color="#c21975"/><stop offset="1" stop-color="#7024c4"/></linearGradient></defs><g transform="translate(-0.001 0)"><path d="M50,25A25,25,0,0,1,25.818,49.986Q25.411,50,25,50t-.817-.013A25.007,25.007,0,1,1,50,25Zm0,0" transform="translate(0 0)" fill="url(#a)"/><g transform="translate(10.157 10.156)"><path d="M20.843,0h-12A8.854,8.854,0,0,0,0,8.844v12a8.854,8.854,0,0,0,8.844,8.844h12a8.854,8.854,0,0,0,8.844-8.844v-12A8.854,8.854,0,0,0,20.843,0ZM26.7,20.843A5.858,5.858,0,0,1,20.843,26.7h-12a5.858,5.858,0,0,1-5.857-5.857v-12A5.857,5.857,0,0,1,8.844,2.987h12A5.857,5.857,0,0,1,26.7,8.844v12Z" fill="#fff"/><path d="M140.678,133a7.678,7.678,0,1,0,7.678,7.678A7.687,7.687,0,0,0,140.678,133Zm0,12.37a4.692,4.692,0,1,1,4.692-4.692A4.692,4.692,0,0,1,140.678,145.37Z" transform="translate(-125.835 -125.835)" fill="#fff"/><circle cx="1.84" cy="1.84" r="1.84" transform="translate(20.697 5.383)" fill="#fff"/></g></g></svg>