<svg xmlns="http://www.w3.org/2000/svg" width="50" height="50" viewBox="0 0 50 50"><rect width="50" height="50" rx="25" fill="#00c200"/><g transform="translate(6.693 8.887)"><path d="M97.477,86.455a9.167,9.167,0,0,0,.145-1.107,13.932,13.932,0,0,0-.017-1.422c-.444-7.725-8.459-13.879-18.28-13.879-10.107,0-18.3,6.517-18.3,14.555,0,7.389,6.922,13.492,15.889,14.43a1,1,0,0,1,.883,1.1l-.382,3.436a1,1,0,0,0,1.427,1.006c7.576-3.656,12.106-7.418,14.812-10.677.492-.593,2.1-2.842,2.425-3.433A12.252,12.252,0,0,0,97.477,86.455Z" transform="translate(-61.025 -70.046)" fill="#fff"/><path d="M120.911,172.241V166.11a.936.936,0,0,0-.936-.936h0a.936.936,0,0,0-.936.936v7.067a.936.936,0,0,0,.936.936h3.744a.936.936,0,0,0,.936-.936h0a.936.936,0,0,0-.936-.936Z" transform="translate(-112.674 -154.737)" fill="#00c500"/><path d="M179.475,174.113h-.409a.731.731,0,0,1-.731-.731v-7.476a.731.731,0,0,1,.731-.731h.409a.731.731,0,0,1,.731.731v7.476A.731.731,0,0,1,179.475,174.113Z" transform="translate(-165.464 -154.737)" fill="#00c500"/><path d="M213.624,166.11v4.317s-3.738-4.876-3.8-4.94a.932.932,0,0,0-.734-.313.962.962,0,0,0-.9.974v7.029a.936.936,0,0,0,.936.936h0a.936.936,0,0,0,.936-.936v-4.291s3.8,4.918,3.851,4.971a.93.93,0,0,0,.633.256.97.97,0,0,0,.945-.975V166.11a.936.936,0,0,0-.936-.936h0A.936.936,0,0,0,213.624,166.11Z" transform="translate(-192.048 -154.737)" fill="#00c500"/><path d="M293.154,166.11h0a.936.936,0,0,0-.936-.936h-3.744a.936.936,0,0,0-.936.936v7.067a.936.936,0,0,0,.936.936h3.744a.936.936,0,0,0,.936-.936h0a.936.936,0,0,0-.936-.936H289.41V170.58h2.808a.936.936,0,0,0,.936-.936h0a.936.936,0,0,0-.936-.936H289.41v-1.661h2.808A.936.936,0,0,0,293.154,166.11Z" transform="translate(-262.686 -154.737)" fill="#00c500"/></g></svg>