<svg xmlns="http://www.w3.org/2000/svg" width="50" height="50" viewBox="0 0 50 50"><path d="M25,0A25,25,0,1,1,0,25,25,25,0,0,1,25,0Z" fill="#0e76a8"/><path d="M81.958,94.68h4.681v-15.6H81.958ZM100.2,78.536A7.026,7.026,0,0,0,94.449,81.2V79.025h-4.7V94.68h4.7V86.214a3.716,3.716,0,0,1,3.692-3.534c2.053,0,2.559,1.745,2.559,3.491v8.508h4.681V85.822C105.382,79.671,102.469,78.536,100.2,78.536ZM84.277,77.517a2.344,2.344,0,1,0-2.344-2.344A2.345,2.345,0,0,0,84.277,77.517Z" transform="translate(-67.871 -60.33)" fill="#fff"/></svg>