<svg xmlns="http://www.w3.org/2000/svg" width="171.001" height="49.873" viewBox="0 0 171.001 49.873"><g transform="translate(-241.091 -241.44)"><g transform="translate(241.592 241.95)"><g transform="translate(0)"><path d="M241.853,489.464a1.461,1.461,0,0,1,2.39-1.681,1.419,1.419,0,0,1,.25,1.1,1.485,1.485,0,0,1-1.689,1.2A1.425,1.425,0,0,1,241.853,489.464Z" transform="translate(-241.591 -447.689)" fill="#fff" stroke="#fff" stroke-miterlimit="10" stroke-width="1"/><path d="M270.162,378.637l-7.873-14.189,2.132-1.183a10.673,10.673,0,0,1,2.392-1.039,3.9,3.9,0,0,1,1.856-.056,4.424,4.424,0,0,1,1.7.826,4.677,4.677,0,0,1,1.276,1.455,3.834,3.834,0,0,1,.266,3.23,3.922,3.922,0,0,1,2.532.362,4.573,4.573,0,0,1,2.28,5.322,4.418,4.418,0,0,1-1.044,1.866,10.576,10.576,0,0,1-2.269,1.607Zm-2.351-9.284.671-.372a2.829,2.829,0,0,0,1.458-1.5,2.345,2.345,0,0,0-.308-1.866,2.235,2.235,0,0,0-1.414-1.2,2.716,2.716,0,0,0-1.942.4l-.754.418Zm3.376,6.084,1.323-.734a3.756,3.756,0,0,0,1.816-1.753,2.252,2.252,0,0,0-.15-1.96,2.289,2.289,0,0,0-1.546-1.162,4.085,4.085,0,0,0-2.74.715l-1.085.6Z" transform="translate(-258.957 -342.742)" fill="#fff" stroke="#fff" stroke-miterlimit="10" stroke-width="1"/><path d="M384.3,301.285l-6.049,2.394,1.435,3.626,5.873-2.324.847,2.14-5.873,2.324,2,5.043,6.049-2.394.847,2.14-8.327,3.294-5.97-15.089,8.326-3.294Z" transform="translate(-353.627 -289.937)" fill="#fff" stroke="#fff" stroke-miterlimit="10" stroke-width="1"/><path d="M486.8,269.245l3.521,13.473-2.369.619-3.521-13.473-3.61.943-.582-2.227,9.579-2.5.582,2.227Z" transform="translate(-441.815 -262.193)" fill="#fff" stroke="#fff" stroke-miterlimit="10" stroke-width="1"/><path d="M594.486,250.512l1.961,13.787-2.424.345-1.961-13.787-3.694.525-.324-2.279,9.8-1.394.324,2.279Z" transform="translate(-532.265 -246.782)" fill="#fff" stroke="#fff" stroke-miterlimit="10" stroke-width="1"/><path d="M718.049,244.251l-6.5.137.082,3.9,6.315-.133.048,2.3-6.315.133.114,5.422,6.5-.137.048,2.3-8.953.189-.342-16.224L718,241.95Z" transform="translate(-633.788 -241.95)" fill="#fff" stroke="#fff" stroke-miterlimit="10" stroke-width="1"/><path d="M827.365,254.843l4.249,7.417-2.978-.323-3.891-7.1-.439-.047-.716,6.6-2.435-.264,1.75-16.133,2.853.31q3.2.347,4.488,1.7a4.44,4.44,0,0,1,1.184,3.7,4.612,4.612,0,0,1-1.3,2.84A4.4,4.4,0,0,1,827.365,254.843Zm-2.829-2.178.773.084q3.458.375,3.745-2.268.269-2.477-3.1-2.841l-.867-.094Z" transform="translate(-727.846 -244.503)" fill="#fff" stroke="#fff" stroke-miterlimit="10" stroke-width="1"/><path d="M934.764,279.273l3.849-15.764,2.369.578a10.677,10.677,0,0,1,2.462.861,3.9,3.9,0,0,1,1.4,1.218,4.423,4.423,0,0,1,.685,1.758,4.68,4.68,0,0,1-.05,1.935,3.835,3.835,0,0,1-2,2.552A3.92,3.92,0,0,1,945.1,274.4a4.573,4.573,0,0,1-1.938,5.455,4.416,4.416,0,0,1-2.033.661,10.581,10.581,0,0,1-2.758-.36Zm2.925-1.655,1.47.359a3.756,3.756,0,0,0,2.523-.055,2.252,2.252,0,0,0,1.221-1.541,2.29,2.29,0,0,0-.347-1.9,4.086,4.086,0,0,0-2.5-1.335l-1.2-.294Zm1.65-6.759.745.182a2.828,2.828,0,0,0,2.088-.112,2.344,2.344,0,0,0,1.04-1.58,2.235,2.235,0,0,0-.22-1.844,2.718,2.718,0,0,0-1.7-1.026l-.837-.2Z" transform="translate(-823.163 -260.038)" fill="#fff" stroke="#fff" stroke-miterlimit="10" stroke-width="1"/><path d="M1179.079,372.613l.2-8.939,2.381,1.445-.2,6.308,5.638-3.008,2.4,1.456-8.017,4.195-.205,9.8-2.345-1.423.151-7.175-6.385,3.39-2.372-1.439Z" transform="translate(-1020.796 -344.076)" fill="#fff" stroke="#fff" stroke-miterlimit="10" stroke-width="1"/><path d="M1279.616,508.9a1.461,1.461,0,0,1,2.306,1.794,1.417,1.417,0,0,1-.977.56,1.484,1.484,0,0,1-1.639-1.265A1.423,1.423,0,0,1,1279.616,508.9Z" transform="translate(-1112.224 -465.453)" fill="#fff" stroke="#fff" stroke-miterlimit="10" stroke-width="1"/></g></g><g transform="translate(260.146 283.589)"><g transform="translate(0)"><path d="M386.274,508.225h-2.389v1.432h2.32v.845h-2.32v1.992h2.389v.846h-3.289v-5.96h3.289Z" transform="translate(-382.985 -507.006)" fill="#fff"/><path d="M412.812,510.17h-2.551l-.664,1.448h-.969l2.949-6.334,2.845,6.334h-.984Zm-.367-.845-.884-2.027-.926,2.027Z" transform="translate(-404.051 -505.283)" fill="#fff"/><path d="M446.594,508.225v5.115h-.9v-5.115h-1.37v-.845h3.636v.845Z" transform="translate(-433.374 -507.006)" fill="#fff"/><path d="M492.614,509.711h2.571V507.38h.9v5.96h-.9v-2.783h-2.571v2.783h-.9v-5.96h.9Z" transform="translate(-472.306 -507.006)" fill="#fff"/><path d="M531.913,508.225h-2.389v1.432h2.32v.845h-2.32v1.992h2.389v.846h-3.289v-5.96h3.289Z" transform="translate(-502.626 -507.006)" fill="#fff"/><path d="M558.45,510.17H555.9l-.664,1.448h-.969l2.949-6.334,2.845,6.334h-.984Zm-.367-.845L557.2,507.3l-.926,2.027Z" transform="translate(-523.691 -505.283)" fill="#fff"/><path d="M596.223,507.38v5.115h1.752v.846h-2.652v-5.96Z" transform="translate(-557.42 -507.006)" fill="#fff"/><path d="M615.993,508.225v5.115h-.9v-5.115h-1.37v-.845h3.636v.845Z" transform="translate(-572.534 -507.006)" fill="#fff"/><path d="M643.92,509.711h2.571V507.38h.9v5.96h-.9v-2.783H643.92v2.783h-.9v-5.96h.9Z" transform="translate(-596.602 -507.006)" fill="#fff"/><path d="M680.827,507.38v5.96h-.9v-5.96Z" transform="translate(-626.92 -507.006)" fill="#fff"/><path d="M700.706,508.225h-2.389v1.432h2.32v.845h-2.32v1.992h2.389v.846h-3.289v-5.96h3.289Z" transform="translate(-641.288 -507.006)" fill="#fff"/><path d="M728.9,510.8l1.845,2.54h-1.1l-1.7-2.44h-.162v2.44h-.9v-5.96h1.054a2.635,2.635,0,0,1,1.706.444,1.631,1.631,0,0,1,.579,1.3,1.693,1.693,0,0,1-.363,1.089A1.617,1.617,0,0,1,728.9,510.8Zm-1.119-.683h.286q1.277,0,1.277-.976,0-.915-1.243-.915h-.32Z" transform="translate(-665.496 -507.006)" fill="#fff"/><path d="M773.938,534.518l.772.3-1.1,2.2-.587-.243Z" transform="translate(-703.398 -529.299)" fill="#fff"/><path d="M812.262,513.34v-5.96h.9a3.931,3.931,0,0,1,.953.093,1.435,1.435,0,0,1,.606.313,1.624,1.624,0,0,1,.4.568,1.71,1.71,0,0,1,.151.695,1.409,1.409,0,0,1-.49,1.085,1.442,1.442,0,0,1,.749.567,1.68,1.68,0,0,1-.216,2.115,1.618,1.618,0,0,1-.668.413,3.88,3.88,0,0,1-1.015.112Zm.9-3.4h.282a1.037,1.037,0,0,0,.735-.222.86.86,0,0,0,.234-.654.821.821,0,0,0-.239-.639,1,1,0,0,0-.695-.218h-.316Zm0,2.555h.556a1.378,1.378,0,0,0,.9-.239.827.827,0,0,0,.3-.657.84.84,0,0,0-.289-.648,1.5,1.5,0,0,0-1.007-.259h-.456Z" transform="translate(-735.633 -507.006)" fill="#fff"/><path d="M846.167,508.225h-2.389v1.432h2.32v.845h-2.32v1.992h2.389v.846h-3.289v-5.96h3.289Z" transform="translate(-760.783 -507.006)" fill="#fff"/><path d="M891.342,509.711h2.571V507.38h.9v5.96h-.9v-2.783h-2.571v2.783h-.9v-5.96h.9Z" transform="translate(-799.857 -507.006)" fill="#fff"/><path d="M927.707,510.17h-2.551l-.664,1.448h-.969l2.949-6.334,2.845,6.334h-.984Zm-.367-.845-.884-2.027-.926,2.027Z" transform="translate(-827.032 -505.283)" fill="#fff"/><path d="M965.483,510.92v2.42h-.9v-5.96H965.6a4.59,4.59,0,0,1,1.131.1,1.512,1.512,0,0,1,.679.394,1.7,1.7,0,0,1,.514,1.266,1.632,1.632,0,0,1-.548,1.3,2.168,2.168,0,0,1-1.478.479Zm0-.834h.336q1.239,0,1.239-.954,0-.922-1.278-.923h-.3Z" transform="translate(-860.763 -507.006)" fill="#fff"/><path d="M993.826,510.92v2.42h-.9v-5.96h1.019a4.591,4.591,0,0,1,1.131.1,1.51,1.51,0,0,1,.679.394,1.7,1.7,0,0,1,.514,1.266,1.632,1.632,0,0,1-.549,1.3,2.168,2.168,0,0,1-1.478.479Zm0-.834h.336q1.239,0,1.24-.954,0-.922-1.278-.923h-.3Z" transform="translate(-884.046 -507.006)" fill="#fff"/><path d="M1022.17,507.38v5.96h-.9v-5.96Z" transform="translate(-907.332 -507.006)" fill="#fff"/><path d="M1042.049,508.225h-2.389v1.432h2.32v.845h-2.32v1.992h2.389v.846h-3.289v-5.96h3.289Z" transform="translate(-921.699 -507.006)" fill="#fff"/><path d="M1070.25,510.8l1.845,2.54h-1.1l-1.7-2.44h-.162v2.44h-.9v-5.96h1.054a2.635,2.635,0,0,1,1.706.444,1.631,1.631,0,0,1,.579,1.3,1.694,1.694,0,0,1-.363,1.089A1.618,1.618,0,0,1,1070.25,510.8Zm-1.12-.683h.286q1.277,0,1.277-.976,0-.915-1.243-.915h-.32Z" transform="translate(-945.909 -507.006)" fill="#fff"/></g></g><g transform="translate(371.925 250.312)"><path d="M1124.615,307.165a3.808,3.808,0,0,0,.339-.849,5.063,5.063,0,0,0-.288.445,4.625,4.625,0,0,0-.42.909A2.485,2.485,0,0,0,1124.615,307.165Z" transform="translate(-1112.473 -304.315)" fill="#f9a848" stroke="#f8a848" stroke-miterlimit="10" stroke-width="1"/><path d="M1104.547,307a4.687,4.687,0,0,0-.841-.567,6.394,6.394,0,0,0-.7-.3c.081.076.165.15.249.223C1103.708,306.549,1104.14,306.774,1104.547,307Z" transform="translate(-1094.65 -304.155)" fill="#f9a848" stroke="#f8a848" stroke-miterlimit="10" stroke-width="1"/><path d="M1069.378,304.711a6.45,6.45,0,0,0-1.176-4.818,4.6,4.6,0,0,0-.745-.693.453.453,0,0,0,.186-.3.461.461,0,0,0-.292-.494,13.69,13.69,0,0,0-3.6-.772,3.44,3.44,0,0,0,.306-.451,7.39,7.39,0,0,0,.72-2.785.452.452,0,0,0-.261-.47.458.458,0,0,0-.527.1,9.871,9.871,0,0,0-1.477,1.85,6.886,6.886,0,0,0-.362.716,4.809,4.809,0,0,0-1.563-1.251,11.746,11.746,0,0,0-2.422-.828.458.458,0,0,0-.483.717c.069.093.143.183.216.273a5.06,5.06,0,0,0-1.216-.065,5.515,5.515,0,0,0-3.893,2.258,8.761,8.761,0,0,0-1.569,4.148,9.581,9.581,0,0,0,1.163,6.343,9.133,9.133,0,0,0,3.595,3.189,13.958,13.958,0,0,0,2.5,1,7.058,7.058,0,0,0,3.117.327,8.583,8.583,0,0,0,3.212-1.5,10.889,10.889,0,0,0,3.579-3.212A7.657,7.657,0,0,0,1069.378,304.711Zm-6.069-8.377a5.036,5.036,0,0,1,.288-.445,3.814,3.814,0,0,1-.339.849,2.507,2.507,0,0,1-.369.5A4.631,4.631,0,0,1,1063.309,296.333Zm-3.84-.476a6.317,6.317,0,0,1,.7.3,4.686,4.686,0,0,1,.842.567c-.407-.221-.84-.447-1.294-.648C1059.634,296.007,1059.551,295.933,1059.469,295.857Zm8.132,11.656a10.2,10.2,0,0,1-3.3,2.921,7.893,7.893,0,0,1-2.859,1.366,6.231,6.231,0,0,1-2.708-.3,9.7,9.7,0,0,1-5.575-3.792,8.666,8.666,0,0,1-1.031-5.735,7.858,7.858,0,0,1,1.394-3.719,4.593,4.593,0,0,1,3.226-1.9,6.662,6.662,0,0,1,3.431.966c.273.142.536.288.787.426a9.468,9.468,0,0,0,.911.431c.185.079.369.158.566.255.085.042.173.087.264.138a.472.472,0,0,0,.155.052c1.762.255,3.572.609,4.642,1.865a5.576,5.576,0,0,1,.962,4.132A6.776,6.776,0,0,1,1067.6,307.513Z" transform="translate(-1051.115 -293.887)" fill="#f9a848" stroke="#f8a848" stroke-miterlimit="10" stroke-width="1"/></g></g></svg>