<svg xmlns="http://www.w3.org/2000/svg" width="65" height="65" viewBox="0 0 65 65"><g transform="translate(-1045 -485)"><g transform="translate(1045 485)" fill="none" stroke="#f9a848" stroke-width="2"><circle cx="32.5" cy="32.5" r="32.5" stroke="none"/><circle cx="32.5" cy="32.5" r="31.5" fill="none"/></g><g transform="translate(1060 499)"><path d="M233.406,358.4a.6.6,0,0,0-.6.6.6.6,0,0,1-1.2,0,.6.6,0,1,0-1.2,0,1.8,1.8,0,0,0,3.61,0A.6.6,0,0,0,233.406,358.4Zm0,0" transform="translate(-214.154 -333.129)" fill="#f9a848"/><path d="M1.805,17.447H7.324a13.165,13.165,0,0,1-.589,9.205c-.176.431-.356.861-.538,1.294a24.261,24.261,0,0,0-2.23,7.505.6.6,0,0,0,.6.647H31.532a.6.6,0,0,0,.6-.646,14.006,14.006,0,0,0-.264-1.76h.017a3.012,3.012,0,0,0,3.008-3.008V28.277a3.012,3.012,0,0,0-3.008-3.008h-3a11.755,11.755,0,0,1,.675-9.556c.265-.464.536-.917.8-1.366a30.476,30.476,0,0,0,1.886-3.516h.526A1.805,1.805,0,0,0,34.529,8.6L32.47.455A.6.6,0,0,0,31.887,0H4.212a.6.6,0,0,0-.584.454L1.565,8.611a1.8,1.8,0,0,0,1.76,2.218h.526c.268.621.569,1.222.892,1.8H1.805A1.8,1.8,0,0,0,0,14.44v1.2a1.8,1.8,0,0,0,1.8,1.8Zm9.024,6.618a.6.6,0,0,0,.6-.6v-1l1.8-.758v.559a.6.6,0,0,0,1.2,0V21.2l1.8-.757v.618a.6.6,0,0,0,1.2,0V19.935l1.8-.757v.677a.6.6,0,0,0,1.2,0V18.672l1.8-.757v.736a.6.6,0,0,0,1.2,0V17.41l1.8-.757v.8a.6.6,0,1,0,1.2,0v-1.3l1.92-.806a11.542,11.542,0,0,0-1.143,3.089L8.092,26.472a17.389,17.389,0,0,0,.8-2.948l1.332-.56v.5a.6.6,0,0,0,.6.6Zm10.228,4.813a1.8,1.8,0,0,0-1.8,1.8v1.2a1.776,1.776,0,0,0,.105.583c-.264.011-.529.019-.793.019A28.474,28.474,0,0,1,6.826,29.572q.24-.583.481-1.159l.156-.375,19.575-8.214a14.923,14.923,0,0,0,.825,6.239c0,.013.011.027.015.04.114.335.234.67.369,1,.187.464.381.926.575,1.39.053.127.105.255.159.382Zm9.807,6.016H5.234a18.745,18.745,0,0,1,1.147-4.2,29.641,29.641,0,0,0,12.182,3c.654,0,1.31-.031,1.949-.093a1.791,1.791,0,0,0,.544.093h9.589c.091.412.169.815.217,1.2Zm2.828-4.211a1.8,1.8,0,0,1-1.8,1.805H21.057a.6.6,0,0,1-.6-.6v-1.2a.6.6,0,0,1,.6-.6h1.2v.6a.6.6,0,1,0,1.2,0v-.6h1.8v.6a.6.6,0,1,0,1.2,0v-.6h1.8v.6a.6.6,0,1,0,1.2,0v-.6h1.8v.6a.6.6,0,1,0,1.2,0v-.6h1.2Zm0-2.406v.6H30.285c-.117-.283-.234-.566-.352-.848-.192-.458-.384-.916-.57-1.378-.025-.06-.043-.12-.067-.18h2.59a1.8,1.8,0,0,1,1.805,1.8ZM20.456,9.627V7.22h2.406V9.627Zm-3.61,0V7.22h2.406V9.627Zm-3.61,0V7.22h2.406V9.627Zm-3.5,0,.4-2.407h1.9V9.627Zm-3.61,0,.4-2.407h2.39l-.4,2.407ZM24.065,7.22h1.9l.4,2.407h-2.3Zm3.518,2.407-.4-2.407h2.39l.4,2.407ZM33.246,9.4a.6.6,0,0,1-.472.228H31.193l-.4-2.407h2.147l.421,1.667a.6.6,0,0,1-.114.511ZM4.68,1.2H31.419l1.216,4.813H3.464ZM2.853,9.4a.6.6,0,0,1-.116-.5L3.16,7.22H5.307l-.4,2.407H3.325A.6.6,0,0,1,2.853,9.4Zm28.08,1.431c-.446.947-.978,1.85-1.537,2.786l-3.745,1.572-.027.012-2.986,1.253-.017.007-3,1.257-.007,0L9.078,22.14a12.211,12.211,0,0,0-.769-5.506c-.005-.013-.009-.026-.015-.04a11.676,11.676,0,0,0-.708-1.481c-.269-.471-.541-.931-.817-1.388-.584-.975-1.139-1.911-1.6-2.9ZM1.2,14.44a.6.6,0,0,1,.6-.6h1.2v.6a.6.6,0,0,0,1.2,0v-.6H5.435l.3.508c.269.449.541.9.8,1.366.1.176.188.354.276.532H1.805a.6.6,0,0,1-.6-.6Zm0,0" transform="translate(0 0)" fill="#f9a848" stroke="#f9a848" stroke-width="0.5"/></g></g></svg>