<svg xmlns="http://www.w3.org/2000/svg" width="65" height="65" viewBox="0 0 65 65"><g transform="translate(-1135 -485)"><g transform="translate(1135 485)" fill="none"><path d="M32.5,0A32.5,32.5,0,1,1,0,32.5,32.5,32.5,0,0,1,32.5,0Z" stroke="none"/><path d="M 32.5 2 C 28.38164901733398 2 24.38753890991211 2.806140899658203 20.62863922119141 4.396018981933594 C 16.9969596862793 5.932090759277344 13.73495864868164 8.13153076171875 10.9332389831543 10.9332389831543 C 8.13153076171875 13.73495864868164 5.932090759277344 16.9969596862793 4.396018981933594 20.62863922119141 C 2.806140899658203 24.38753890991211 2 28.38164901733398 2 32.5 C 2 36.61834716796875 2.806140899658203 40.61245727539062 4.396018981933594 44.37136077880859 C 5.932090759277344 48.0030403137207 8.13153076171875 51.26504135131836 10.9332389831543 54.0667610168457 C 13.73495864868164 56.86846923828125 16.9969596862793 59.06790924072266 20.62863922119141 60.60398101806641 C 24.38753890991211 62.1938591003418 28.38164901733398 63 32.5 63 C 36.61834716796875 63 40.61245727539062 62.1938591003418 44.37136077880859 60.60398101806641 C 48.0030403137207 59.06790924072266 51.26504135131836 56.86846923828125 54.0667610168457 54.0667610168457 C 56.86846923828125 51.26504135131836 59.06790924072266 48.0030403137207 60.60398101806641 44.37136077880859 C 62.1938591003418 40.61245727539062 63 36.61834716796875 63 32.5 C 63 28.38164901733398 62.1938591003418 24.38753890991211 60.60398101806641 20.62863922119141 C 59.06790924072266 16.9969596862793 56.86846923828125 13.73495864868164 54.0667610168457 10.9332389831543 C 51.26504135131836 8.13153076171875 48.0030403137207 5.932090759277344 44.37136077880859 4.396018981933594 C 40.61245727539062 2.806140899658203 36.61834716796875 2 32.5 2 M 32.5 0 C 50.44924926757812 0 65 14.55075073242188 65 32.5 C 65 50.44924926757812 50.44924926757812 65 32.5 65 C 14.55075073242188 65 0 50.44924926757812 0 32.5 C 0 14.55075073242188 14.55075073242188 0 32.5 0 Z" stroke="none" fill="#f9a848"/></g><path d="M143.53,133.3a.962.962,0,0,0-.043-.093,1.013,1.013,0,0,0-.143-.215c-.021-.024-.038-.049-.06-.07a.973.973,0,0,0-.273-.19l-.015-.007-8.885-4h-.023a.98.98,0,0,0-.221-.051,1.056,1.056,0,0,0-.161-.034.962.962,0,0,0-.161.029.993.993,0,0,0-.216.049l-.026.006-8.884,4-.015.007a.953.953,0,0,0-.272.19.75.75,0,0,0-.061.07,1.011,1.011,0,0,0-.143.214c-.014.031-.03.06-.043.092a1.024,1.024,0,0,0-.069.349v3.248l-2.566-1.155a.036.036,0,0,1-.024-.006q-.189-.047-.381-.078a1.015,1.015,0,0,0-.161.029.991.991,0,0,0-.216.049l-.025.006-8.885,4-.015.007a.943.943,0,0,0-.272.19.746.746,0,0,0-.061.07,1,1,0,0,0-.143.214c-.014.031-.03.06-.043.092a1.033,1.033,0,0,0-.069.349v12.032a.884.884,0,0,0,.026.128.622.622,0,0,0,.15.41,1.009,1.009,0,0,0,.105.157.971.971,0,0,0,.208.149.947.947,0,0,0,.1.071l.015.007,8.885,4h.007c.017.007.034.008.051.014a.984.984,0,0,0,.338.07h.01a.984.984,0,0,0,.338-.07c.017-.006.035-.007.052-.014h.007l8.885-4,.014-.007a.789.789,0,0,0,.1-.07,1.026,1.026,0,0,0,.21-.15,1.037,1.037,0,0,0,.1-.157.976.976,0,0,0,.1-.164,1,1,0,0,0,.048-.245.962.962,0,0,0,.031-.129v-3.25l2.566,1.158h.007c.017.007.034.008.051.014a.973.973,0,0,0,.338.07h.01a.974.974,0,0,0,.338-.07c.017-.006.035-.007.052-.014h.007l8.885-4,.014-.007a.847.847,0,0,0,.1-.07,1.01,1.01,0,0,0,.21-.151,1.033,1.033,0,0,0,.1-.157.94.94,0,0,0,.1-.164,1.018,1.018,0,0,0,.048-.245.991.991,0,0,0,.031-.13V133.644A1,1,0,0,0,143.53,133.3Zm-8.834,5.013,6.924-3.119v9.838l-6.924,3.119Zm-.989-7.576,6.468,2.914-6.468,2.911-6.467-2.914Zm-12.86,7.019,3.562,1.6.019.008,2.887,1.3-6.467,2.909-6.467-2.914Zm7.914,10.134v4.161l-6.925,3.119v-9.841l6.925-3.12Zm-15.828-5.68,6.925,3.12v9.838l-6.925-3.119Zm17.806-1.543a1.057,1.057,0,0,0-.255-.656c-.021-.024-.038-.049-.06-.07a.973.973,0,0,0-.273-.19l-.015-.007-4.344-1.956v-2.6l6.925,3.119v9.837l-1.978-.892Zm0,0" transform="translate(1040.496 374.062)" fill="#f9a848"/></g></svg>