<svg xmlns="http://www.w3.org/2000/svg" width="22.891" height="22.891" viewBox="0 0 22.891 22.891"><path d="M20.208,1.788H19.135V0H17.347V1.788H5.544V0H3.755V1.788H2.682A2.685,2.685,0,0,0,0,4.471V20.208a2.685,2.685,0,0,0,2.682,2.682H20.208a2.685,2.685,0,0,0,2.682-2.682V4.471A2.685,2.685,0,0,0,20.208,1.788ZM2.682,3.577H3.755V5.365H5.544V3.577h11.8V5.365h1.788V3.577h1.073a.9.9,0,0,1,.894.894V6.617H1.788V4.471A.9.9,0,0,1,2.682,3.577ZM20.208,21.1H2.682a.9.9,0,0,1-.894-.894V8.405H21.1v11.8A.9.9,0,0,1,20.208,21.1Zm-6.08-1.878h5.365V13.86H14.128Zm1.788-3.577H17.7v1.788H15.916Zm0,0" fill="#222"/></svg>