<svg xmlns="http://www.w3.org/2000/svg" width="21.101" height="21.101" viewBox="0 0 21.101 21.101"><path d="M18.259,0H2.845A2.843,2.843,0,0,0,0,2.843V18.257A2.843,2.843,0,0,0,2.845,21.1h7.6l.013-7.54H8.5a.462.462,0,0,1-.462-.46L8.03,10.67a.462.462,0,0,1,.462-.464h1.955V7.857a3.837,3.837,0,0,1,4.1-4.209h2A.462.462,0,0,1,17,4.11V6.159a.462.462,0,0,1-.462.462H15.314c-1.322,0-1.578.628-1.578,1.55v2.033h2.905a.462.462,0,0,1,.459.517l-.288,2.431a.462.462,0,0,1-.459.408h-2.6l-.013,7.54h4.523A2.843,2.843,0,0,0,21.1,18.258V2.843A2.843,2.843,0,0,0,18.259,0Z" transform="translate(-0.002 0)" fill="#fff"/></svg>