<svg xmlns="http://www.w3.org/2000/svg" width="61" height="51.829" viewBox="0 0 61 51.829"><path d="M56.73,68.087l-1.58-6.319a.955.955,0,0,0,.756-.934V59.816A4.016,4.016,0,0,0,51.895,55.8H44.7V53.7a1.976,1.976,0,0,0-1.974-1.974H29.347l8.13-3.252a.955.955,0,0,0-.709-1.774l-6.657,2.663a22.45,22.45,0,0,0,4.8-3.736,4.448,4.448,0,0,0-7.074-5.395c-1.087,1.425-2.521,5.43-3.449,8.251-.928-2.822-2.362-6.826-3.449-8.251a4.448,4.448,0,0,0-7.074,5.395,22.443,22.443,0,0,0,4.8,3.736L12.007,46.7a.955.955,0,0,0-.709,1.774l8.13,3.252H6.049A1.976,1.976,0,0,0,4.075,53.7v17.32a.955.955,0,1,0,1.91,0V53.7a.064.064,0,0,1,.064-.064H42.725a.064.064,0,0,1,.064.064v17.32a.955.955,0,0,0,1.91,0V69.94H55.972a3.125,3.125,0,0,1,2.968,2.165H55.97a.955.955,0,0,0-.955.955V75.1a3,3,0,0,0,2.993,2.993H59.09v4.2h-2.5a6.047,6.047,0,0,0-11.433,0H44.7V75.1a.955.955,0,1,0-1.91,0v7.2H22.972a6.047,6.047,0,0,0-11.433,0H6.049a.064.064,0,0,1-.064-.064v-2.1h4.139a.955.955,0,0,0,0-1.91H.955a.955.955,0,0,0,0,1.91h3.12v2.1A1.976,1.976,0,0,0,6.049,84.2h5.159c0,.021,0,.042,0,.064a6.049,6.049,0,1,0,12.1,0c0-.021,0-.042,0-.064H44.828c0,.021,0,.042,0,.064a6.049,6.049,0,1,0,12.1,0c0-.021,0-.042,0-.064h3.122A.955.955,0,0,0,61,83.248V73.06A5.038,5.038,0,0,0,56.73,68.087ZM20.6,48.324c-3.768-2.341-4.885-3.418-5.216-3.852a2.538,2.538,0,0,1,4.036-3.078c.924,1.211,2.371,5.289,3.326,8.227C22.1,49.241,21.36,48.8,20.6,48.324Zm5.43,1.3c.955-2.938,2.4-7.015,3.326-8.227a2.538,2.538,0,0,1,4.036,3.078c-.331.434-1.448,1.511-5.216,3.852C27.415,48.8,26.674,49.241,26.029,49.621ZM44.7,57.714h7.2a2.1,2.1,0,0,1,2.1,2.1v.064H44.7Zm0,10.315V61.79h8.487l1.56,6.24ZM17.256,88.406a4.139,4.139,0,1,1,4.139-4.139A4.144,4.144,0,0,1,17.256,88.406Zm33.62,0a4.139,4.139,0,1,1,4.139-4.139A4.144,4.144,0,0,1,50.876,88.406ZM59.09,76.18H58.007A1.084,1.084,0,0,1,56.925,75.1V74.015H59.09V76.18Z" transform="translate(0 -38.486)" fill="#f9a848"/><g transform="translate(15.282 43.806)"><path d="M130.241,406.172a1.974,1.974,0,1,0,1.974,1.974A1.976,1.976,0,0,0,130.241,406.172Z" transform="translate(-128.267 -406.172)" fill="#f9a848"/></g><g transform="translate(48.902 43.806)"><path d="M412.429,406.172a1.974,1.974,0,1,0,1.974,1.974A1.976,1.976,0,0,0,412.429,406.172Z" transform="translate(-410.455 -406.172)" fill="#f9a848"/></g><g transform="translate(24.451 39.731)"><g transform="translate(0 0)"><path d="M220.445,371.967H206.182a.955.955,0,1,0,0,1.91h14.263a.955.955,0,0,0,0-1.91Z" transform="translate(-205.227 -371.967)" fill="#f9a848"/></g></g><g transform="translate(2.038 35.656)"><g transform="translate(0 0)"><path d="M30.283,337.763H18.057a.955.955,0,0,0,0,1.91H30.283a.955.955,0,0,0,0-1.91Z" transform="translate(-17.102 -337.763)" fill="#f9a848"/></g></g><g transform="translate(10.188 21.393)"><path d="M90.541,218.046H86.466a.955.955,0,0,0-.955.955v8.15a.955.955,0,0,0,1.91,0v-3.12h2.1a.955.955,0,0,0,0-1.91h-2.1v-2.165h3.12a.955.955,0,0,0,0-1.91Z" transform="translate(-85.511 -218.046)" fill="#f9a848"/></g><g transform="translate(17.319 21.393)"><path d="M150.784,224.479a3.5,3.5,0,0,0-1.913-6.433h-2.547a.955.955,0,0,0-.955.955v8.15a.955.955,0,0,0,1.91,0v-2.1h1.59l1.754,2.631a.955.955,0,1,0,1.589-1.06Zm-1.913-1.339h-1.592v-3.184h1.592a1.592,1.592,0,1,1,0,3.184Z" transform="translate(-145.369 -218.046)" fill="#f9a848"/></g><g transform="translate(25.47 21.393)"><path d="M218.808,226.2h-3.12v-2.168c.021,0,.042,0,.064,0h2.038a.955.955,0,1,0,0-1.91h-2.038c-.022,0-.043,0-.064,0v-2.168h3.12a.955.955,0,0,0,0-1.91h-4.075a.955.955,0,0,0-.955.955v8.15a.955.955,0,0,0,.955.955h4.075a.955.955,0,1,0,0-1.91Z" transform="translate(-213.778 -218.046)" fill="#f9a848"/></g><g transform="translate(32.601 21.393)"><path d="M278.666,226.2h-3.12v-2.165h1.083a.955.955,0,0,0,0-1.91h-1.083v-2.165h3.12a.955.955,0,0,0,0-1.91h-4.075a.955.955,0,0,0-.955.955v8.15a.955.955,0,0,0,.955.955h4.075a.955.955,0,1,0,0-1.91Z" transform="translate(-273.636 -218.046)" fill="#f9a848"/></g></svg>