<svg xmlns="http://www.w3.org/2000/svg" width="65" height="65" viewBox="0 0 65 65"><g transform="translate(-865 -485)"><g transform="translate(865 485)" fill="none" stroke="#f9a848" stroke-width="2"><circle cx="32.5" cy="32.5" r="32.5" stroke="none"/><circle cx="32.5" cy="32.5" r="31.5" fill="none"/></g><g transform="translate(881 495.999)"><path d="M20.742,229.493q-.471.147-.937.3c-3.747,1.2-7.287,2.324-12.981-.264a.821.821,0,0,0-.974.227,26.108,26.108,0,0,1-4.209,4.066V213.023c1.972.189,5.046,1.061,6.436,3.469a.82.82,0,1,0,1.421-.82C7.523,212.252,3.114,211.34.82,211.34a.82.82,0,0,0-.82.82v23.025a.821.821,0,0,0,.979.8,1.669,1.669,0,0,0,.363-.114c2.014-.9,4.425-3.52,5.371-4.607,5.947,2.522,9.831,1.283,13.591.084.307-.1.616-.2.926-.293a.82.82,0,0,0-.488-1.567Zm0,0" transform="translate(0 -194.002)" fill="#f9a848" stroke="#f9a848" stroke-width="0.25"/><path d="M193.86,11.381c-.263-1.025-.471-1.836-.55-2.317-.3-1.867-2.177-6.156-5.324-8.091a5.911,5.911,0,0,0-5.069-.682c-2.387.756-3.6,1.4-4.175,2.238a3.213,3.213,0,0,0-.109,2.9l0,.01a2.469,2.469,0,0,0-1.018,2.688l.334,1.247a2.453,2.453,0,0,0,2.974,1.749,8.393,8.393,0,0,0,4.018.856,24.008,24.008,0,0,1-.666,5.666,26.776,26.776,0,0,0-.693,5.4,13.055,13.055,0,0,0-5.521-2.7.82.82,0,1,0-.33,1.607,12.444,12.444,0,0,1,6.219,3.625.82.82,0,0,0,1.393-.688,20,20,0,0,1,.54-6.926,25.263,25.263,0,0,0,.69-6.181,3.543,3.543,0,0,0,1.763-1.025.82.82,0,0,0-1.223-1.094,2.376,2.376,0,0,1-1.5.64,8.742,8.742,0,0,1-3.182-.305,2.453,2.453,0,0,0,.269-1.9l-.334-1.247a2.465,2.465,0,0,0-2.144-1.813l-.015-.054c-.246-.88-.32-1.239-.122-1.525.332-.48,1.419-1.006,3.322-1.609a4.336,4.336,0,0,1,3.714.515c2.662,1.637,4.31,5.4,4.564,6.957.09.554.306,1.4.58,2.461,1.094,4.263,3.131,12.2,1.033,17.061a11.729,11.729,0,0,0-.761,2.656,3.081,3.081,0,0,1-.524,1.525,4.512,4.512,0,0,1-2.273,1.024.82.82,0,0,0,.2,1.617.83.83,0,0,0,.2-.024c3.284-.809,3.666-1.985,4.017-3.836a10.177,10.177,0,0,1,.656-2.312c2.32-5.378.193-13.666-.95-18.119Zm-13.072-4.1.334,1.247a.818.818,0,0,1-1.2.921.813.813,0,0,1-.383-.5L179.2,7.7a.825.825,0,0,1,.58-1A.822.822,0,0,1,180.788,7.28Zm0,0" transform="translate(-162.552 0)" fill="#f9a848" stroke="#f9a848" stroke-width="0.25"/><path d="M106.5,346.293a.82.82,0,0,0,.4,1.088,13.526,13.526,0,0,0,5.257.99,15.12,15.12,0,0,0,6.337-1.4.82.82,0,1,0-.684-1.491,13.251,13.251,0,0,1-10.228.41.82.82,0,0,0-1.086.4Zm0,0" transform="translate(-97.691 -317.068)" fill="#f9a848" stroke="#f9a848" stroke-width="0.25"/><path d="M137.113,248.082l.055,0a.82.82,0,0,0-.109-1.637h0a.82.82,0,0,0,.054,1.639Zm0,0" transform="translate(-125.113 -226.223)" fill="#f9a848" stroke="#f9a848" stroke-width="0.25"/><path d="M284.965,422.1h0a.82.82,0,1,0,.958.655A.82.82,0,0,0,284.964,422.1Zm0,0" transform="translate(-260.973 -387.462)" fill="#f9a848" stroke="#f9a848" stroke-width="0.25"/></g></g></svg>