<svg xmlns="http://www.w3.org/2000/svg" xmlns:xlink="http://www.w3.org/1999/xlink" width="24.977" height="24.977" viewBox="0 0 24.977 24.977"><defs><linearGradient id="a" x1="0.5" y1="1" x2="0.5" gradientUnits="objectBoundingBox"><stop offset="0" stop-color="#e09b3d"/><stop offset="0.3" stop-color="#c74c4d"/><stop offset="0.6" stop-color="#c21975"/><stop offset="1" stop-color="#7024c4"/></linearGradient></defs><path d="M24.978,12.488A12.489,12.489,0,0,1,12.9,24.97q-.2.007-.408.007t-.408-.007a12.492,12.492,0,1,1,12.9-12.482Zm0,0" transform="translate(-0.001 0.001)" fill="url(#a)"/><g transform="translate(5.074 5.074)"><path d="M10.412,0H4.418A4.423,4.423,0,0,0,0,4.418v5.994A4.423,4.423,0,0,0,4.418,14.83h5.994a4.423,4.423,0,0,0,4.418-4.418V4.418A4.423,4.423,0,0,0,10.412,0Zm2.926,10.412a2.926,2.926,0,0,1-2.926,2.926H4.418a2.926,2.926,0,0,1-2.926-2.926V4.418A2.926,2.926,0,0,1,4.418,1.492h5.994a2.926,2.926,0,0,1,2.926,2.926v5.994Z" fill="#fff"/><path d="M136.836,133a3.836,3.836,0,1,0,3.836,3.836A3.84,3.84,0,0,0,136.836,133Zm0,6.179a2.344,2.344,0,1,1,2.344-2.344A2.344,2.344,0,0,1,136.836,139.179Z" transform="translate(-129.421 -129.421)" fill="#fff"/><circle cx="0.919" cy="0.919" r="0.919" transform="translate(10.339 2.689)" fill="#fff"/></g></svg>