<svg xmlns="http://www.w3.org/2000/svg" width="25" height="25" viewBox="0 0 25 25"><rect width="25" height="25" rx="12.5" fill="#00c200"/><g transform="translate(3.346 4.443)"><path d="M79.251,78.25a4.584,4.584,0,0,0,.072-.554,6.966,6.966,0,0,0-.009-.711c-.222-3.862-4.229-6.94-9.14-6.94-5.053,0-9.15,3.258-9.15,7.278,0,3.694,3.461,6.746,7.944,7.215a.5.5,0,0,1,.441.55l-.191,1.718a.5.5,0,0,0,.713.5,21.6,21.6,0,0,0,7.406-5.338c.246-.3,1.049-1.421,1.212-1.716A6.126,6.126,0,0,0,79.251,78.25Z" transform="translate(-61.025 -70.046)" fill="#fff"/><path d="M119.975,168.708v-3.065a.468.468,0,0,0-.468-.468h0a.468.468,0,0,0-.468.468v3.534a.468.468,0,0,0,.468.468h1.872a.468.468,0,0,0,.468-.468h0a.468.468,0,0,0-.468-.468Z" transform="translate(-115.857 -159.956)" fill="#00c500"/><path d="M178.9,169.644h-.2a.366.366,0,0,1-.366-.366V165.54a.366.366,0,0,1,.366-.366h.2a.366.366,0,0,1,.366.366v3.738A.366.366,0,0,1,178.9,169.644Z" transform="translate(-171.899 -159.956)" fill="#00c500"/><path d="M210.91,165.642V167.8s-1.869-2.438-1.9-2.47a.466.466,0,0,0-.367-.156.481.481,0,0,0-.45.487v3.514a.468.468,0,0,0,.468.468h0a.468.468,0,0,0,.468-.468V167.03s1.9,2.459,1.925,2.486a.465.465,0,0,0,.317.128.485.485,0,0,0,.472-.487v-3.514a.468.468,0,0,0-.468-.468h0A.468.468,0,0,0,210.91,165.642Z" transform="translate(-200.122 -159.955)" fill="#00c500"/><path d="M290.346,165.642h0a.468.468,0,0,0-.468-.468h-1.872a.468.468,0,0,0-.468.468v3.534a.468.468,0,0,0,.468.468h1.872a.468.468,0,0,0,.468-.468h0a.468.468,0,0,0-.468-.468h-1.4v-.831h1.4a.468.468,0,0,0,.468-.468h0a.468.468,0,0,0-.468-.468h-1.4v-.831h1.4A.468.468,0,0,0,290.346,165.642Z" transform="translate(-275.112 -159.956)" fill="#00c500"/></g></svg>