<svg xmlns="http://www.w3.org/2000/svg" width="25" height="25" viewBox="0 0 25 25"><path d="M12.5,0A12.5,12.5,0,1,1,0,12.5,12.5,12.5,0,0,1,12.5,0Z" fill="#0e76a8"/><path d="M81.946,83.755h2.341v-7.8H81.946Zm9.119-8.072a3.513,3.513,0,0,0-2.873,1.331V75.928H85.842v7.827h2.349V79.522a1.858,1.858,0,0,1,1.846-1.767c1.027,0,1.28.873,1.28,1.745v4.254h2.341V79.326C93.657,76.25,92.2,75.683,91.064,75.683ZM83.1,75.174A1.172,1.172,0,1,0,81.933,74,1.172,1.172,0,0,0,83.1,75.174Z" transform="translate(-74.902 -66.58)" fill="#fff"/></svg>