<svg xmlns="http://www.w3.org/2000/svg" width="65" height="65" viewBox="0 0 65 65"><g transform="translate(-955 -485)"><g transform="translate(955 485)" fill="none" stroke="#f9a848" stroke-width="2"><circle cx="32.5" cy="32.5" r="32.5" stroke="none"/><circle cx="32.5" cy="32.5" r="31.5" fill="none"/></g><g transform="translate(957.833 498)"><path d="M35.164,21.666a.847.847,0,0,1-.845-.845,4.672,4.672,0,0,0-4.668-4.667.845.845,0,0,1,0-1.691,6.366,6.366,0,0,1,6.359,6.358A.847.847,0,0,1,35.164,21.666Zm9.781,12.175a4.411,4.411,0,0,1-8.822,0,4.371,4.371,0,0,1,.787-2.507L34.188,28.2a8.575,8.575,0,0,1-9.451-.226l-3.372,3.078a3.193,3.193,0,0,1,.308,1.357,3.273,3.273,0,1,1-1.39-2.657l3.154-2.88a8.681,8.681,0,0,1,6.221-14.749,7.632,7.632,0,0,1,.906.095l.844-3.8a4.394,4.394,0,1,1,1.816.4c-.056,0-.109-.014-.17-.017l-.834,3.748a8.626,8.626,0,0,1,3.319,14.627l2.586,2.972a4.376,4.376,0,0,1,2.411-.727A4.421,4.421,0,0,1,44.945,33.841ZM33.217,7.134A2.721,2.721,0,1,0,30.5,4.411,2.727,2.727,0,0,0,33.217,7.134ZM19.979,32.41a1.562,1.562,0,1,0-1.562,1.567A1.564,1.564,0,0,0,19.979,32.41Zm9.673-4.585a7,7,0,1,0-7-7A7.012,7.012,0,0,0,29.652,27.825Zm13.6,6.016a2.726,2.726,0,0,0-2.719-2.724,2.689,2.689,0,0,0-1.843.733.785.785,0,0,1-.1.132.249.249,0,0,1-.066.036,2.717,2.717,0,1,0,4.73,1.823Z" fill="#f9a848"/></g></g></svg>