<svg xmlns="http://www.w3.org/2000/svg" width="174.907" height="141.321" viewBox="0 0 174.907 141.321"><g transform="translate(-635.093 -188.695)"><path d="M2.5,99.1c5.4,19.314,20.739,36.2,40.232,40.913a50.643,50.643,0,0,0,49.713-16.473c7.962-9.576,6.949-30.982,21.39-40.1s35.919-8.2,43.584-18.542c8.648-11.672,5.751-29.1-3.543-40.261S130.384,7.569,116.264,4.157A148.795,148.795,0,0,0,83.958.021C67.249-.274,49.98,2.465,35.878,11.433c-11.131,7.079-19.709,17.707-25.8,29.41C.825,58.635-2.9,79.791,2.5,99.1Z" transform="translate(635.093 188.695)" fill="#fff0a9"/><g transform="translate(667.237 192)"><g transform="translate(99.525 0)"><path d="M343.729,38.547a2.25,2.25,0,0,0-2.838-1.437l-.8.262V36.5a2.249,2.249,0,1,0-4.5,0v.874l-.8-.262a2.249,2.249,0,1,0-1.4,4.275l.829.272-.522.725a2.252,2.252,0,0,0,1.824,3.564c1.311,0,1.821-.926,2.319-1.618l.492.683a2.249,2.249,0,0,0,3.651-2.628l-.522-.725.829-.272A2.249,2.249,0,0,0,343.729,38.547Z" transform="translate(-331.844 -34.249)" fill="#f9a848"/></g><g transform="translate(121.768 24.145)"><path d="M417.892,119.052a2.25,2.25,0,0,0-2.838-1.437l-.8.262V117a2.249,2.249,0,1,0-4.5,0v.874l-.8-.262a2.249,2.249,0,1,0-1.4,4.275l.829.272-.522.725a2.25,2.25,0,0,0,3.651,2.628l.491-.683c.473.657.99,1.618,2.319,1.618a2.252,2.252,0,0,0,1.824-3.564l-.522-.725.829-.272A2.25,2.25,0,0,0,417.892,119.052Z" transform="translate(-406.007 -114.754)" fill="#f9a848"/></g><g transform="translate(101.371 20.994)"><g transform="translate(0 0)"><circle cx="2.249" cy="2.249" r="2.249" fill="#f9a848"/></g></g><g transform="translate(137.361 57.407)"><circle cx="2.249" cy="2.249" r="2.249" fill="#f9a848"/></g><g transform="translate(113.968 40.189)"><circle cx="2.249" cy="2.249" r="2.249" fill="#f9a848"/></g><g transform="translate(138.264 10.797)"><g transform="translate(0 0)"><circle cx="2.249" cy="2.249" r="2.249" fill="#f9a848"/></g></g></g><g transform="translate(679 192)"><g transform="translate(0.002)"><path d="M124.663,103.532H122.55V80.29H113.9l-2.113-21.129H92.97V40.145H82.3c.046-.7.108-1.4.108-2.113A31.567,31.567,0,0,0,73.529,16.09l1.481-1.481L78.8,18.4l2.988-2.988L71.222,4.845,68.234,7.832l3.789,3.789-1.62,1.62a31.5,31.5,0,0,0-17.577-6.8V4.226h6.338V0h-16.9V4.226H48.6V6.447a31.517,31.517,0,0,0-17.577,6.8l-1.62-1.62L33.19,7.833,30.2,4.845,19.637,15.409,22.625,18.4l3.789-3.789,1.481,1.481a31.567,31.567,0,0,0-8.876,21.943c0,.714.061,1.411.108,2.113H8.454v63.387H6.341a6.339,6.339,0,1,0,0,12.677H19.017a14.79,14.79,0,1,0,29.58,0H88.742a14.79,14.79,0,1,0,29.58,0h6.339a6.339,6.339,0,0,0,0-12.677Zm-16.7-40.145,1.69,16.9H92.969v-16.9ZM50.712,10.565A27.468,27.468,0,1,1,23.244,38.032,27.5,27.5,0,0,1,50.712,10.565ZM8.454,111.984H6.341a2.113,2.113,0,0,1,0-4.226H8.454Zm25.355,14.79A10.564,10.564,0,1,1,44.373,116.21,10.576,10.576,0,0,1,33.808,126.774Zm14.167-14.79a14.781,14.781,0,0,0-28.334,0H12.679V44.371h6.977a31.7,31.7,0,0,0,62.111,0h6.977v67.613H47.975Zm55.558,14.79A10.565,10.565,0,1,1,114.1,116.209,10.576,10.576,0,0,1,103.534,126.774Zm14.791-14.79H117.7a14.767,14.767,0,0,0-24.732-6.1V84.516h25.355v27.468Zm6.338,0H122.55v-4.226h2.113a2.113,2.113,0,0,1,0,4.226Z" transform="translate(-0.002)" fill="#f9a848"/><path d="M67.278,243.75a6.339,6.339,0,1,0,6.338,6.339A6.346,6.346,0,0,0,67.278,243.75Zm0,8.452a2.113,2.113,0,1,1,2.113-2.113A2.115,2.115,0,0,1,67.278,252.2Z" transform="translate(-33.472 -133.879)" fill="#f9a848"/><path d="M221.965,243.75a6.339,6.339,0,1,0,6.338,6.339A6.346,6.346,0,0,0,221.965,243.75Zm0,8.452a2.113,2.113,0,1,1,2.113-2.113A2.115,2.115,0,0,1,221.965,252.2Z" transform="translate(-118.434 -133.879)" fill="#f9a848"/><path d="M86.185,59.528a6.338,6.338,0,1,0,6.338-6.339,6.414,6.414,0,0,0-1.05.105L79.336,39.136l-3.209,2.751,11.6,13.537A6.282,6.282,0,0,0,86.185,59.528Zm8.452,0a2.113,2.113,0,1,1-2.113-2.113A2.117,2.117,0,0,1,94.636,59.528Z" transform="translate(-41.814 -21.495)" fill="#f9a848"/><path d="M82.255,88.725l.347-4.211A18.979,18.979,0,0,1,69.985,52.96l-3.157-2.808A23.2,23.2,0,0,0,82.255,88.725Z" transform="translate(-33.472 -27.546)" fill="#f9a848"/></g></g></g></svg>