<svg xmlns="http://www.w3.org/2000/svg" width="105" height="110" viewBox="0 0 105 110"><g transform="translate(-745 -365)"><circle cx="52.5" cy="52.5" r="52.5" transform="translate(745 370)" fill="#fff"/><path d="M39.7,317.837c2.991,10.691,11.48,20.039,22.27,22.647a28.033,28.033,0,0,0,27.518-9.119c4.408-5.3,3.846-17.15,11.84-22.2s19.883-4.537,24.126-10.264c4.787-6.461,3.184-16.106-1.961-22.286s-13-9.45-20.82-11.338a82.364,82.364,0,0,0-17.883-2.289c-9.249-.163-18.808,1.353-26.614,6.317a42,42,0,0,0-14.28,16.28C38.772,295.436,36.708,307.147,39.7,317.837Z" transform="matrix(-0.259, -0.966, 0.966, -0.259, 524.192, 577.253)" fill="#f8d6d5"/><g transform="translate(767 387)"><path d="M111.167,75.794a1.133,1.133,0,0,0-1.347.867,23.393,23.393,0,0,1-2.855,7.072,15.4,15.4,0,0,1-6.972,6.123A12.809,12.809,0,0,0,102.7,75.218c0-.012-.011-.024-.016-.036l-.016-.033a12.879,12.879,0,0,0-.748-1.354,12.412,12.412,0,0,1-.461-9.474,1.133,1.133,0,0,0-1.162-1.577,8.519,8.519,0,0,0-5.214,3.065,14.152,14.152,0,0,0-7.8-8.458,1.133,1.133,0,0,0-1.516,1.311c1.013,4.364-1.426,8.382-4.009,12.636-.427.7-.867,1.429-1.285,2.149a12.784,12.784,0,0,0-1.182,2.159c-.008.017-.015.035-.023.053a12.819,12.819,0,0,0,3.851,15.027A15.685,15.685,0,0,1,71.512,75.718c0-.032.012-.636.025-.9a15.615,15.615,0,0,1,.946-4.507q.078-.212.162-.427c1.726-4.437,4.363-7.6,6.913-10.66,3.872-4.646,7.546-9.054,6-16.545a15.406,15.406,0,0,1,9.88,8.2A18.737,18.737,0,0,1,97.4,59.727a1.133,1.133,0,0,0,1.916.917,11.444,11.444,0,0,0,3.663-6.669,32.347,32.347,0,0,1,6.933,14.068,1.133,1.133,0,1,0,2.228-.413c-1.888-10.178-9.368-17.3-9.686-17.594a1.131,1.131,0,0,0-1.844,1.2,6.884,6.884,0,0,1-1.068,5.589,22.03,22.03,0,0,0-2.079-6.962,18.043,18.043,0,0,0-13.252-9.844,1.133,1.133,0,0,0-1.3,1.439c1.484,4.911.6,8.276-1.348,11.4A12.48,12.48,0,0,0,74.139,48.6a1.134,1.134,0,0,0-1.162,1.574,17.692,17.692,0,0,1,1.078,4.672,19.226,19.226,0,0,1-1.815,10.5A19.279,19.279,0,0,0,71.1,67.393a1.154,1.154,0,0,0-.054.114,18.977,18.977,0,0,0-1.781,7.3c0,.062-.011.307-.012.368a17.483,17.483,0,0,0,.171,2.964,18,18,0,0,0,9.24,13.207,17.674,17.674,0,0,0,8.483,2.125h6.5a17.972,17.972,0,0,0,8.755-2.278,17.621,17.621,0,0,0,6.5-6.289,25.644,25.644,0,0,0,3.127-7.758,1.132,1.132,0,0,0-.867-1.347ZM80.15,54.7a1.08,1.08,0,0,0,.076.085c-.738.977-1.555,1.957-2.409,2.982-.507.608-1.027,1.233-1.551,1.882a22.305,22.305,0,0,0-.524-8.274A11.035,11.035,0,0,1,80.15,54.7ZM86.461,86.58c0-1.435,1.04-2.942,2.358-4.849A37.942,37.942,0,0,0,91.4,77.613c2.968,3.313,4.307,6.121,4.307,8.966a4.621,4.621,0,0,1-9.243,0Zm-5.934-5.935a10.493,10.493,0,0,1,.833-4.118l0-.011a10.527,10.527,0,0,1,1-1.824c.015-.023.031-.047.045-.071.413-.712.856-1.441,1.284-2.146,2.311-3.808,4.69-7.726,4.569-12.07,3.7,2.449,5.427,7.07,4.972,8.7a1.133,1.133,0,0,0,2.154.7,7.563,7.563,0,0,1,3.342-4.148,14.515,14.515,0,0,0,1.178,9.188,1.109,1.109,0,0,0,.064.114,10.576,10.576,0,0,1,.651,1.172l.007.015A10.55,10.55,0,0,1,97.53,89a6.849,6.849,0,0,0,.439-2.417c0-3.821-1.874-7.444-6.076-11.749a1.133,1.133,0,0,0-1.855.352,29.041,29.041,0,0,1-3.083,5.261C85.474,82.587,84.2,84.438,84.2,86.58A6.854,6.854,0,0,0,84.634,89a10.543,10.543,0,0,1-4.108-8.351Zm0,0" transform="translate(-61.406 -35.467)" fill="#ea3f40"/><path d="M41.133,0A1.133,1.133,0,0,0,40,1.133V2.766a1.133,1.133,0,0,0,2.266,0V1.133A1.133,1.133,0,0,0,41.133,0Zm0,0" transform="translate(-35.469)" fill="#ea3f40"/><path d="M41.133,65.586A1.133,1.133,0,0,0,40,66.719v1.633a1.133,1.133,0,0,0,2.266,0V66.719A1.133,1.133,0,0,0,41.133,65.586Zm0,0" transform="translate(-35.469 -58.156)" fill="#ea3f40"/><path d="M68.352,42.266a1.133,1.133,0,0,0,0-2.266H66.719a1.133,1.133,0,0,0,0,2.266Zm0,0" transform="translate(-58.156 -35.469)" fill="#ea3f40"/><path d="M2.766,40H1.133a1.133,1.133,0,0,0,0,2.266H2.766a1.133,1.133,0,1,0,0-2.266Zm0,0" transform="translate(0 -35.469)" fill="#ea3f40"/><path d="M453.133,42.547A1.133,1.133,0,0,0,452,43.68v1.633a1.133,1.133,0,0,0,2.266,0V43.68A1.133,1.133,0,0,0,453.133,42.547Zm0,0" transform="translate(-400.797 -37.727)" fill="#ea3f40"/><path d="M453.133,108.133A1.133,1.133,0,0,0,452,109.266V110.9a1.133,1.133,0,1,0,2.266,0v-1.633A1.133,1.133,0,0,0,453.133,108.133Zm0,0" transform="translate(-400.797 -95.884)" fill="#ea3f40"/><path d="M480.352,82.547h-1.633a1.133,1.133,0,1,0,0,2.266h1.633a1.133,1.133,0,0,0,0-2.266Zm0,0" transform="translate(-423.484 -73.196)" fill="#ea3f40"/><path d="M413.133,84.813h1.633a1.133,1.133,0,0,0,0-2.266h-1.633a1.133,1.133,0,0,0,0,2.266Zm0,0" transform="translate(-365.328 -73.196)" fill="#ea3f40"/><path d="M432.821,315.75a1.133,1.133,0,1,0,.8.332A1.139,1.139,0,0,0,432.821,315.75Zm0,0" transform="translate(-382.786 -279.981)" fill="#ea3f40"/></g></g></svg>