<svg xmlns="http://www.w3.org/2000/svg" width="105" height="107.18" viewBox="0 0 105 107.18"><g transform="translate(-435 -368)"><circle cx="52.5" cy="52.5" r="52.5" transform="translate(435 370)" fill="#fff"/><path d="M39.7,317.837c2.991,10.691,11.48,20.039,22.27,22.647a28.033,28.033,0,0,0,27.518-9.119c4.408-5.3,3.846-17.15,11.84-22.2s19.883-4.537,24.126-10.264c4.787-6.461,3.184-16.106-1.961-22.286s-13-9.45-20.82-11.338a82.364,82.364,0,0,0-17.883-2.289c-9.249-.163-18.808,1.353-26.614,6.317a42,42,0,0,0-14.28,16.28C38.772,295.436,36.708,307.147,39.7,317.837Z" transform="matrix(-0.259, -0.966, 0.966, -0.259, 217.192, 580.253)" fill="#f8d6d5"/><g transform="translate(460 398)"><path d="M51.347,8.537H49.2l0-3.845A4.686,4.686,0,0,0,44.52.009L28.2,0h0a3.456,3.456,0,0,0-2.46,1.019L1.371,25.385a4.681,4.681,0,0,0,0,6.62L17.183,47.818a4.687,4.687,0,0,0,6.62,0L39.145,32.477a1.074,1.074,0,0,0-1.519-1.519L22.284,46.3a2.535,2.535,0,0,1-3.581,0L2.89,30.486a2.533,2.533,0,0,1,0-3.582L27.256,2.538a1.322,1.322,0,0,1,.941-.39h0l16.321.009a2.536,2.536,0,0,1,2.532,2.534l-.005,9H42.207a1.5,1.5,0,0,1-1.067-.445,3.965,3.965,0,1,0-2.345.243,3.658,3.658,0,0,0,3.412,2.35h4.837l0,5.15a1.319,1.319,0,0,1-.39.94L43.7,24.881A1.074,1.074,0,0,0,45.221,26.4l2.949-2.949a3.457,3.457,0,0,0,1.019-2.458l0-5.151h2.155a3.652,3.652,0,0,0,0-7.3ZM38.3,8.331a1.8,1.8,0,0,1,2.842.366,3.667,3.667,0,0,0-2.444,2.494,1.806,1.806,0,0,1-.4-2.861Zm13.051,5.363H49.194l0-3.008h2.152a1.5,1.5,0,1,1,0,3.008Zm0,0" fill="#ea3f40"/><path d="M161.085,215.481a1.073,1.073,0,0,0,1.323.747l11.028-3.07a1.074,1.074,0,1,0-.576-2.07l-11.028,3.069A1.075,1.075,0,0,0,161.085,215.481Zm0,0" transform="translate(-143.746 -188.378)" fill="#ea3f40"/><path d="M198.893,257.8a3.167,3.167,0,1,0,4.479,0A3.146,3.146,0,0,0,198.893,257.8Zm2.96,2.96a1.018,1.018,0,1,1,0-1.441A1.02,1.02,0,0,1,201.853,260.764Zm0,0" transform="translate(-176.7 -229.284)" fill="#ea3f40"/><path d="M208.338,161.032a3.171,3.171,0,1,0-2.24.926A3.171,3.171,0,0,0,208.338,161.032Zm-2.96-2.96a1.019,1.019,0,1,1,0,1.441A1.012,1.012,0,0,1,205.378,158.072Zm0,0" transform="translate(-181.133 -138.908)" fill="#ea3f40"/><path d="M58.859,85.157a1.074,1.074,0,0,0-1.519,0l-3.052,3.052a1.074,1.074,0,0,0,0,1.519L67.909,103.35a1.075,1.075,0,0,0,1.519,0L89.795,82.983a1.074,1.074,0,0,0,0-1.519L76.173,67.842a1.074,1.074,0,0,0-1.519,0L63.417,79.08A1.074,1.074,0,0,0,64.936,80.6L75.414,70.121l12.1,12.1L68.669,101.071l-12.1-12.1,2.293-2.293a1.074,1.074,0,0,0,0-1.519Zm0,0" transform="translate(-48.175 -60.274)" fill="#ea3f40"/><path d="M376.7,256.973a1.075,1.075,0,1,0,.759.315A1.082,1.082,0,0,0,376.7,256.973Zm0,0" transform="translate(-335.271 -229.368)" fill="#ea3f40"/><path d="M112.5,202.255a1.073,1.073,0,1,0-.759.315A1.076,1.076,0,0,0,112.5,202.255Zm0,0" transform="translate(-98.783 -178.892)" fill="#ea3f40"/></g></g></svg>