<svg xmlns="http://www.w3.org/2000/svg" width="119.173" height="118.592" viewBox="0 0 119.173 118.592"><g transform="translate(-893 -364)"><circle cx="52.5" cy="52.5" r="52.5" transform="translate(900 370)" fill="#fff"/><path d="M1.384,23.369C4.375,12.678,12.864,3.331,23.654.722A28.033,28.033,0,0,1,51.172,9.841c4.408,5.3,3.846,17.15,11.84,22.2S82.9,36.575,87.138,42.3c4.787,6.461,3.184,16.106-1.961,22.286s-13,9.45-20.82,11.338a82.364,82.364,0,0,1-17.883,2.289c-9.249.163-18.808-1.353-26.614-6.317A42,42,0,0,1,5.58,55.619C.457,45.771-1.607,34.06,1.384,23.369Z" transform="translate(893 425.38) rotate(-43)" fill="#d2e3fe"/><g transform="translate(926.002 396.501)"><path d="M226.145,268.781a3,3,0,1,0,2.93,3A2.966,2.966,0,0,0,226.145,268.781Zm0,3.9a.9.9,0,1,1,.835-.9A.872.872,0,0,1,226.145,272.679Zm0,0" transform="translate(-200.111 -240.511)" fill="#ea3f40"/><path d="M281.883,364.938a3,3,0,1,0,2.93,3A2.968,2.968,0,0,0,281.883,364.938Zm0,3.9a.9.9,0,1,1,.836-.9A.87.87,0,0,1,281.883,368.836Zm0,0" transform="translate(-250.079 -326.714)" fill="#ea3f40"/><path d="M103.907,104.428a2.931,2.931,0,1,0-2.93,2.995A2.968,2.968,0,0,0,103.907,104.428Zm-2.93.9a.9.9,0,1,1,.836-.9A.871.871,0,0,1,100.977,105.328Zm0,0" transform="translate(-87.899 -90.483)" fill="#ea3f40"/><path d="M200.871,78.938a3,3,0,1,0,2.93,3A2.966,2.966,0,0,0,200.871,78.938Zm0,3.9a.9.9,0,1,1,.835-.9A.872.872,0,0,1,200.871,82.835Zm0,0" transform="translate(-177.453 -70.319)" fill="#ea3f40"/><path d="M79.859,205.15a2.931,2.931,0,1,0,2.93-3A2.966,2.966,0,0,0,79.859,205.15Zm3.766,0a.838.838,0,1,1-.836-.9A.87.87,0,0,1,83.625,205.15Zm0,0" transform="translate(-71.594 -180.779)" fill="#ea3f40"/><path d="M268.057,50.337l.018.009a1.047,1.047,0,0,0,.934-1.875l-.018-.009a1.047,1.047,0,0,0-.934,1.875Zm0,0" transform="translate(-239.79 -42.899)" fill="#ea3f40"/><path d="M343.742,201.756a2.932,2.932,0,1,0-2.93,3A2.966,2.966,0,0,0,343.742,201.756Zm-2.93.9a.9.9,0,1,1,.836-.9A.874.874,0,0,1,340.812,202.659Zm0,0" transform="translate(-302.905 -177.74)" fill="#ea3f40"/><path d="M377.215,311.891a3,3,0,1,0,2.93,3A2.966,2.966,0,0,0,377.215,311.891Zm0,3.9a.9.9,0,1,1,.835-.9A.872.872,0,0,1,377.215,315.789Zm0,0" transform="translate(-335.543 -279.158)" fill="#ea3f40"/><path d="M49.943,23.845c-.025-.018-.052-.034-.079-.049-.384-.216-.722-.4-1.023-.567-2.133-1.174-2.133-1.174-3.862-4.154l-.26-.449c-1.528-3.261-3.567-4.593-6.491-4.181,0-.042,0-.082,0-.125.509-4.388-1.051-6.814-5.053-7.864a1.048,1.048,0,0,0-.531,2.027c2.986.784,3.9,2.259,3.5,5.638a.962.962,0,0,0-.007.1c-.007.287-.015.555-.022.807l-.591.246c-2.251.94-2.251.94-5.651.439l-.523-.077c-4.086-.978-6.555.226-8,3.9q-.017.044-.03.089c-.123.419-.228.787-.321,1.115-.669,2.348-.669,2.348-3.176,4.693l-.389.364c-3.311,2.587-3.911,5.27-1.943,8.69.015.026.032.053.049.078.251.359.474.672.672.951a8.617,8.617,0,0,1,1.219,2.011c-.348.094-.736.21-1.195.347-.326.1-.691.207-1.1.327-3,.571-4.455-.367-5.55-3.568-.011-.03-.022-.061-.036-.09L9.3,33.99C7.613,30.224,7.491,30.064,4.956,28.3c-.283-.2-.6-.418-.957-.671-2.319-1.99-2.494-3.714-.676-6.568.017-.027.034-.055.048-.084l.278-.54c1.888-3.664,1.936-3.859,1.735-6.945-.022-.343-.047-.728-.072-1.165.109-3.058,1.345-4.27,4.707-4.625a.952.952,0,0,0,.1-.015l.593-.119c4.04-.808,4.222-.892,6.5-2.974.255-.232.54-.493.867-.785,2.454-1.82,4.172-1.607,6.547.8.021.022.044.042.067.063l.347.293A1.048,1.048,0,0,0,26.387,3.36l-.3-.254c-3.11-3.137-5.978-3.43-9.3-.95-.025.019-.049.038-.072.059-.346.31-.647.585-.915.829-1.919,1.75-1.919,1.75-5.5,2.467l-.547.11C5.364,6.1,3.349,8.16,3.217,12.3c0,.031,0,.062,0,.093.026.463.053.869.076,1.229.169,2.6.169,2.6-1.507,5.848l-.257.5C-.83,23.7-.476,26.567,2.676,29.251c.023.02.048.039.073.056.379.269.712.5,1.01.709C5.891,31.5,5.891,31.5,7.39,34.847l.226.5c1.2,3.465,3.094,5.093,6.03,5.093a10.145,10.145,0,0,0,1.93-.2c.031-.006.061-.013.092-.022.439-.127.824-.242,1.167-.345.362-.108.674-.2.952-.279.034.38.068.818.109,1.336l.041.52c-.044,4.207,1.678,6.348,5.576,6.941.03,0,.061.008.092.01.438.027.821.048,1.163.066,2.433.131,2.433.131,5.284,2.067l.428.29a7.353,7.353,0,0,0,4.563,1.983,6.413,6.413,0,0,0,4.336-2.022c.023-.021.044-.043.065-.066.3-.327.552-.615.78-.871,1.617-1.82,1.617-1.82,4.9-2.845l.5-.155c4.105-.892,5.808-3.048,5.52-6.986,0-.031-.006-.062-.011-.093-.071-.434-.136-.814-.194-1.152-.414-2.4-.414-2.4.835-5.614l.188-.484c1.862-3.77,1.24-6.447-2.016-8.676Zm.119,7.785c-.014.029-.243.615-.243.615-1.418,3.649-1.445,3.838-.947,6.73.055.32.117.679.184,1.087.2,2.843-.835,4.088-3.921,4.749-.032.007-.063.015-.093.025L44.5,45c-3.733,1.165-3.9,1.262-5.845,3.454-.216.243-.458.516-.736.823-2.1,1.928-3.712,1.9-6.151-.1-.025-.02-.051-.04-.077-.057l-.465-.316c-3.24-2.2-3.418-2.267-6.348-2.425-.323-.017-.686-.037-1.1-.062-2.812-.44-3.794-1.722-3.752-4.883,0-.032,0-.065,0-.1l-.044-.566c-.084-1.072-.149-1.862-.235-2.495a.991.991,0,0,0-.01-.108,1.07,1.07,0,0,0-.021-.108c-.23-1.508-.619-2.1-1.8-3.763-.188-.264-.4-.56-.635-.9-1.41-2.475-1.021-4.044,1.473-5.98.025-.02.05-.041.074-.063l.423-.4c2.849-2.666,2.955-2.824,3.76-5.65.089-.311.188-.659.3-1.053,1.054-2.646,2.522-3.319,5.589-2.576a.962.962,0,0,0,.1.019l.569.084c3.864.57,4.053.553,6.763-.578.3-.125.632-.264,1.011-.419l.1-.03,0,0c2.655-.771,4.077-.025,5.389,2.8.013.029.028.057.044.085l.284.488c1.965,3.386,2.1,3.524,4.664,4.938.285.157.6.333.966.535,2.343,1.619,2.673,3.2,1.264,6.03Zm0,0" transform="translate(0 0)" fill="#ea3f40"/></g></g></svg>