<svg xmlns="http://www.w3.org/2000/svg" width="105" height="105" viewBox="0 0 105 105"><g transform="translate(-590 -370)"><circle cx="52.5" cy="52.5" r="52.5" transform="translate(590 370)" fill="#fff"/><path d="M39.7,317.837c2.991,10.691,11.48,20.039,22.27,22.647a28.033,28.033,0,0,0,27.518-9.119c4.408-5.3,3.846-17.15,11.84-22.2s19.883-4.537,24.126-10.264c4.787-6.461,3.184-16.106-1.961-22.286s-13-9.45-20.82-11.338a82.364,82.364,0,0,0-17.883-2.289c-9.249-.163-18.808,1.353-26.614,6.317a42,42,0,0,0-14.28,16.28C38.772,295.436,36.708,307.147,39.7,317.837Z" transform="translate(559.685 120.021)" fill="#fff0a9"/><g transform="translate(-4 -4)"><path d="M.311,1.778A1.042,1.042,0,0,1,1.783.3l.434.434A1.042,1.042,0,1,1,.744,2.212ZM3.594,32.467.469,34.55a1.042,1.042,0,1,0,1.155,1.733L4.749,34.2a1.042,1.042,0,0,0-1.155-1.733ZM48.519,2.517a1.039,1.039,0,0,0,.736-.305l.434-.434A1.042,1.042,0,0,0,48.216.3l-.434.434a1.042,1.042,0,0,0,.736,1.778ZM8.642,10.112a1.042,1.042,0,1,0,1.473-1.473l-4.7-4.7A1.042,1.042,0,0,0,3.942,5.411ZM25,47.708a1.042,1.042,0,0,0-1.041,1.042v.208a1.041,1.041,0,1,0,2.083,0V48.75A1.042,1.042,0,0,0,25,47.708ZM40.621,10.417a1.039,1.039,0,0,0,.736-.305l4.7-4.7a1.042,1.042,0,0,0-1.473-1.473l-4.7,4.7a1.042,1.042,0,0,0,.736,1.778Zm2.2,31.321A6.187,6.187,0,0,1,40.3,47.7a6.33,6.33,0,0,1-6.514.583l-6.9-3.351a4.293,4.293,0,0,0-3.734,0L16.271,48.3a6.329,6.329,0,0,1-6.515-.569,6.187,6.187,0,0,1-2.529-5.961L8.3,34.219A4.163,4.163,0,0,0,7.146,30.7L1.8,25.227A6.179,6.179,0,0,1,.313,18.917,6.216,6.216,0,0,1,5.24,14.643L12.8,13.324a4.265,4.265,0,0,0,3.015-2.182L19.4,4.393a6.23,6.23,0,0,1,5.582-3.352h.007a6.23,6.23,0,0,1,5.582,3.34l3.6,6.741a4.265,4.265,0,0,0,3.02,2.176l7.561,1.3A6.284,6.284,0,0,1,48.21,25.178l-5.335,5.486a4.162,4.162,0,0,0-1.147,3.52ZM41.381,29.21l5.335-5.486a4.2,4.2,0,0,0-2.324-7.07l-7.561-1.3a6.278,6.278,0,0,1-4.5-3.248l-3.6-6.741a4.179,4.179,0,0,0-3.745-2.238h0a4.178,4.178,0,0,0-3.744,2.246l-3.583,6.749a6.278,6.278,0,0,1-4.5,3.257L5.6,16.7a4.2,4.2,0,0,0-2.309,7.075l5.347,5.474a6.315,6.315,0,0,1,1.726,5.267L9.289,42.068a4.135,4.135,0,0,0,1.692,3.983,4.2,4.2,0,0,0,4.376.381l6.888-3.365a6.307,6.307,0,0,1,5.558-.006l6.9,3.351a4.2,4.2,0,0,0,4.375-.391,4.135,4.135,0,0,0,1.683-3.986l-1.09-7.554A6.314,6.314,0,0,1,41.381,29.21ZM49.53,34.55l-3.124-2.083A1.042,1.042,0,0,0,45.251,34.2l3.124,2.083A1.042,1.042,0,0,0,49.53,34.55Zm-14.116-6.1H32.439a1.042,1.042,0,0,0,0,2.083h.378a7.886,7.886,0,0,1-15.633,0h.378a1.042,1.042,0,0,0,0-2.083H14.585a1.042,1.042,0,0,0,0,2.083h.5a9.968,9.968,0,0,0,19.828,0h.5a1.042,1.042,0,0,0,0-2.083Z" transform="translate(622 395)" fill="#ea3f40"/><circle cx="1.5" cy="1.5" r="1.5" transform="translate(640 414)" fill="#ea3f40"/><circle cx="1.5" cy="1.5" r="1.5" transform="translate(651 414)" fill="#ea3f40"/></g></g></svg>