<svg xmlns="http://www.w3.org/2000/svg" width="119.083" height="117.053" viewBox="0 0 119.083 117.053"><g transform="translate(-1203.459 -363.587)"><circle cx="52.5" cy="52.5" r="52.5" transform="translate(1210 370)" fill="#fff"/><path d="M39.7,317.837c2.991,10.691,11.48,20.039,22.27,22.647a28.033,28.033,0,0,0,27.518-9.119c4.408-5.3,3.846-17.15,11.84-22.2s19.883-4.537,24.126-10.264c4.787-6.461,3.184-16.106-1.961-22.286s-13-9.45-20.82-11.338a82.364,82.364,0,0,0-17.883-2.289c-9.249-.163-18.808,1.353-26.614,6.317a42,42,0,0,0-14.28,16.28C38.772,295.436,36.708,307.147,39.7,317.837Z" transform="matrix(0.788, 0.616, -0.616, 0.788, 1383.334, 132.768)" fill="#d2e3fe"/><g transform="translate(1239 399.541)"><path d="M52.84,23.737a6.35,6.35,0,0,1-1.891-2.225,6.515,6.515,0,0,1,.53-2.994c.518-1.621,1.053-3.3.268-4.653-.8-1.373-2.531-1.75-4.208-2.112a6.431,6.431,0,0,1-2.815-1.017,6.431,6.431,0,0,1-1.011-2.813c-.362-1.679-.737-3.414-2.113-4.21-1.356-.785-3.031-.25-4.653.268a6.53,6.53,0,0,1-2.995.53A6.354,6.354,0,0,1,31.727,2.62C30.562,1.331,29.356,0,27.73,0S24.9,1.331,23.737,2.62a6.35,6.35,0,0,1-2.225,1.891,6.532,6.532,0,0,1-2.994-.53c-1.619-.517-3.3-1.054-4.653-.268s-1.75,2.531-2.112,4.208a6.431,6.431,0,0,1-1.017,2.815,6.431,6.431,0,0,1-2.813,1.011c-1.679.362-3.414.737-4.21,2.113-.785,1.356-.25,3.032.268,4.653a6.513,6.513,0,0,1,.53,2.995A6.354,6.354,0,0,1,2.62,23.732C1.331,24.9,0,26.1,0,27.73s1.331,2.832,2.62,4a6.35,6.35,0,0,1,1.891,2.225,6.515,6.515,0,0,1-.53,2.994c-.518,1.621-1.053,3.3-.268,4.653.8,1.373,2.531,1.75,4.208,2.112a6.431,6.431,0,0,1,2.815,1.012,6.431,6.431,0,0,1,1.011,2.813c.362,1.679.737,3.414,2.113,4.21,1.356.785,3.031.25,4.653-.268a6.53,6.53,0,0,1,2.995-.53,6.354,6.354,0,0,1,2.224,1.891c1.166,1.289,2.371,2.62,4,2.62s2.832-1.331,4-2.62a6.35,6.35,0,0,1,2.225-1.891,6.532,6.532,0,0,1,2.994.53c1.62.518,3.294,1.054,4.653.268s1.75-2.531,2.112-4.208a6.431,6.431,0,0,1,1.012-2.815,6.431,6.431,0,0,1,2.813-1.011c1.679-.362,3.414-.737,4.21-2.113.785-1.356.25-3.032-.268-4.653a6.513,6.513,0,0,1-.53-2.995,6.354,6.354,0,0,1,1.891-2.224c1.289-1.166,2.62-2.371,2.62-4S54.128,24.9,52.84,23.737ZM51.6,30.357a7.3,7.3,0,0,0-2.437,3.117,7.511,7.511,0,0,0,.555,4.034c.4,1.238.8,2.518.43,3.165-.387.668-1.716.955-3,1.232a7.407,7.407,0,0,0-3.73,1.511A7.419,7.419,0,0,0,41.9,47.148c-.277,1.284-.564,2.613-1.23,3-.65.374-1.929-.034-3.166-.429a7.529,7.529,0,0,0-4.033-.555A7.3,7.3,0,0,0,30.357,51.6c-.9.989-1.821,2.011-2.628,2.011S26,52.588,25.1,51.6a7.3,7.3,0,0,0-3.117-2.437,3.648,3.648,0,0,0-.937-.116h0a10.669,10.669,0,0,0-3.1.667c-1.24.4-2.518.8-3.165.43-.668-.387-.955-1.716-1.232-3a7.407,7.407,0,0,0-1.511-3.73A7.419,7.419,0,0,0,8.311,41.9c-1.284-.277-2.613-.564-3-1.23-.374-.647.033-1.924.429-3.162A7.51,7.51,0,0,0,6.3,33.475,7.3,7.3,0,0,0,3.86,30.357c-.989-.9-2.011-1.821-2.011-2.628S2.871,26,3.864,25.1A7.3,7.3,0,0,0,6.3,21.985a7.511,7.511,0,0,0-.555-4.034c-.4-1.238-.8-2.518-.43-3.165.387-.668,1.716-.955,3-1.232a7.407,7.407,0,0,0,3.73-1.511,7.419,7.419,0,0,0,1.512-3.731c.277-1.284.564-2.613,1.23-3,.647-.377,1.924.033,3.162.429a7.5,7.5,0,0,0,4.033.555A7.3,7.3,0,0,0,25.1,3.86c.9-.989,1.821-2.011,2.628-2.011s1.732,1.022,2.628,2.011A7.3,7.3,0,0,0,33.474,6.3a7.522,7.522,0,0,0,4.034-.555c1.24-.4,2.518-.8,3.165-.43.668.387.955,1.716,1.232,3a7.407,7.407,0,0,0,1.511,3.73,7.419,7.419,0,0,0,3.731,1.512c1.284.277,2.613.564,3,1.23.374.648-.033,1.928-.429,3.166a7.51,7.51,0,0,0-.555,4.033A7.3,7.3,0,0,0,51.6,25.1c.989.9,2.011,1.821,2.011,2.628S52.588,29.462,51.6,30.357Z" fill="#ea3f40" stroke="#ea3f40" stroke-width="0.25"/><path d="M232.924,67.7a.924.924,0,0,0,.924-.924V64.924a.924.924,0,1,0-1.849,0v1.849A.924.924,0,0,0,232.924,67.7Z" transform="translate(-205.195 -56.605)" fill="#ea3f40" stroke="#ea3f40" stroke-width="0.25"/><path d="M188.981,72.491a.924.924,0,0,0,.892.685.9.9,0,0,0,.241-.031.924.924,0,0,0,.653-1.131l-.479-1.786c0-.016-.008-.032-.013-.048a.924.924,0,0,0-1.772.527Z" transform="translate(-166.69 -61.486)" fill="#ea3f40" stroke="#ea3f40" stroke-width="0.25"/><path d="M149.692,86.924l-.006-.011a.924.924,0,0,0-1.595.935l.924,1.6a.924.924,0,1,0,1.6-.924Z" transform="translate(-130.869 -76.467)" fill="#ea3f40" stroke="#ea3f40" stroke-width="0.25"/><path d="M114.692,116A.924.924,0,1,0,116,114.692l-1.308-1.308-.023-.023a.924.924,0,1,0-1.284,1.33Z" transform="translate(-100.034 -100.034)" fill="#ea3f40" stroke="#ea3f40" stroke-width="0.25"/><path d="M114.781,339.837l-1.308,1.308a.924.924,0,1,0,1.307,1.307l1.308-1.308a.924.924,0,0,0-1.307-1.307Z" transform="translate(-100.123 -300.343)" fill="#ea3f40" stroke="#ea3f40" stroke-width="0.25"/><path d="M150.321,363.8a.924.924,0,0,0-1.265.33l-.924,1.6a.924.924,0,1,0,1.6.924l.924-1.6A.924.924,0,0,0,150.321,363.8Z" transform="translate(-130.907 -321.657)" fill="#ea3f40" stroke="#ea3f40" stroke-width="0.25"/><path d="M190.163,378.888a.924.924,0,0,0-1.135.648l-.478,1.785a.924.924,0,1,0,1.785.479l.479-1.786A.924.924,0,0,0,190.163,378.888Z" transform="translate(-166.738 -335.082)" fill="#ea3f40" stroke="#ea3f40" stroke-width="0.25"/><path d="M232.924,384a.924.924,0,0,0-.924.924v1.849a.924.924,0,0,0,1.849,0v-1.849A.924.924,0,0,0,232.924,384Z" transform="translate(-205.195 -339.633)" fill="#ea3f40" stroke="#ea3f40" stroke-width="0.25"/><path d="M273.168,379.536a.924.924,0,0,0-1.786.478l.479,1.786a.924.924,0,1,0,1.785-.479Z" transform="translate(-240 -335.082)" fill="#ea3f40" stroke="#ea3f40" stroke-width="0.25"/><path d="M283.48,410.272Z" transform="translate(-250.727 -362.869)" fill="#ea3f40" stroke="#ea3f40" stroke-width="0.25"/><path d="M309.692,364.052l-.006-.011a.924.924,0,1,0-1.595.935l.924,1.6a.924.924,0,1,0,1.6-.924Z" transform="translate(-272.381 -321.576)" fill="#ea3f40" stroke="#ea3f40" stroke-width="0.25"/><path d="M341.144,339.837a.924.924,0,0,0-1.307,1.307l1.308,1.308a.924.924,0,1,0,1.307-1.307Z" transform="translate(-300.343 -300.343)" fill="#ea3f40" stroke="#ea3f40" stroke-width="0.25"/><path d="M340.406,116.27h0a.924.924,0,0,0,.654-.271l1.308-1.308.023-.023a.924.924,0,0,0-1.33-1.284l-1.308,1.308a.924.924,0,0,0,.654,1.578Z" transform="translate(-300.258 -100.034)" fill="#ea3f40" stroke="#ea3f40" stroke-width="0.25"/><path d="M308.931,89.913a.924.924,0,0,0,.8-.462l.924-1.6.006-.011a.924.924,0,0,0-1.607-.913l-.924,1.6a.924.924,0,0,0,.8,1.386Z" transform="translate(-272.421 -76.468)" fill="#ea3f40" stroke="#ea3f40" stroke-width="0.25"/><path d="M272.028,73.145a.9.9,0,0,0,.24.031h0a.924.924,0,0,0,.892-.685l.478-1.785q.007-.024.013-.048a.924.924,0,0,0-1.8-.431l-.479,1.786A.924.924,0,0,0,272.028,73.145Z" transform="translate(-239.992 -61.486)" fill="#ea3f40" stroke="#ea3f40" stroke-width="0.25"/><path d="M200.319,188.94h-6.47v-4.622h4.622a.924.924,0,1,0,0-1.849h-4.622v-4.622h6.47a.924.924,0,1,0,0-1.849h-7.395a.924.924,0,0,0-.924.924v12.94a.924.924,0,0,0,.924.924h7.395a.924.924,0,0,0,0-1.849Z" transform="translate(-169.816 -155.665)" fill="#ea3f40" stroke="#ea3f40" stroke-width="0.25"/><path d="M81.478,190.442a.9.9,0,0,0,.226.2.939.939,0,0,0,.092.06.9.9,0,0,0,.385.092.924.924,0,0,0,.322-.065,1.045,1.045,0,0,0,.1-.051.938.938,0,0,0,.113-.057c.02-.014.031-.036.049-.053a.868.868,0,0,0,.132-.141.726.726,0,0,0,.154-.3.95.95,0,0,0,.037-.185c0-.026.015-.048.015-.074V176.924a.924.924,0,0,0-.923-.924h0a.924.924,0,0,0-.924.924v10.057L73.69,176.387c-.014-.02-.036-.031-.053-.049a.866.866,0,0,0-.14-.132.928.928,0,0,0-.14-.092.952.952,0,0,0-.161-.06.846.846,0,0,0-.185-.037c-.025,0-.046-.015-.072-.015a.787.787,0,0,0-.092.019.867.867,0,0,0-.185.036,21.18,21.18,0,0,0-.26.117c-.02.014-.031.036-.049.053a.866.866,0,0,0-.132.141.9.9,0,0,0-.092.139.885.885,0,0,0-.061.164.94.94,0,0,0-.037.185c0,.026-.015.048-.015.074v12.936a.924.924,0,0,0,1.849,0V179.808L81.432,190.4C81.444,190.419,81.464,190.426,81.478,190.442Z" transform="translate(-63.695 -155.665)" fill="#ea3f40" stroke="#ea3f40" stroke-width="0.25"/><path d="M294.058,176.017h0a.924.924,0,0,0-1.1.709h0l-2.063,9.63-2.627-7.879a.924.924,0,0,0-1.756,0l-2.623,7.879-2.063-9.63a.925.925,0,0,0-1.808.388l2.773,12.94a.922.922,0,0,0,1.777.1l2.825-8.461,2.821,8.461a.924.924,0,0,0,.876.632h.052a.924.924,0,0,0,.852-.728l2.773-12.94A.924.924,0,0,0,294.058,176.017Z" transform="translate(-247.645 -155.661)" fill="#ea3f40" stroke="#ea3f40" stroke-width="0.25"/></g></g></svg>