<svg xmlns="http://www.w3.org/2000/svg" width="105" height="105" viewBox="0 0 105 105"><g transform="translate(-1055 -370)"><circle cx="52.5" cy="52.5" r="52.5" transform="translate(1055 370)" fill="#fff"/><path d="M39.7,317.837c2.991,10.691,11.48,20.039,22.27,22.647a28.033,28.033,0,0,0,27.518-9.119c4.408-5.3,3.846-17.15,11.84-22.2s19.883-4.537,24.126-10.264c4.787-6.461,3.184-16.106-1.961-22.286s-13-9.45-20.82-11.338a82.364,82.364,0,0,0-17.883-2.289c-9.249-.163-18.808,1.353-26.614,6.317a42,42,0,0,0-14.28,16.28C38.772,295.436,36.708,307.147,39.7,317.837Z" transform="translate(1024.686 120.021)" fill="#fff0a9"/><g transform="translate(1020.263 398)"><g transform="translate(88.555 5.273)"><path d="M273.337,54.286a.976.976,0,1,0,.286.69A.986.986,0,0,0,273.337,54.286Z" transform="translate(-271.67 -54)" fill="#ea3f40"/></g><g transform="translate(68.737)"><path d="M105.217,34.664c-.005-.047-.01-.093-.016-.14l-.012-.093h0L101.346,6.119a.977.977,0,0,0-.968-.845H94.023a.977.977,0,0,0,0,1.953h5.5l.2,1.465c-.107-.116-.216-.231-.328-.344a.977.977,0,0,0-1.381,0L84.2,22.158a.977.977,0,0,0,0,1.381,10.756,10.756,0,0,0,17.167-2.709l1.881,13.861h0v0c.005.041.01.081.015.122a6.163,6.163,0,0,1-6.129,6.892H94.377l3.935-3.935a3.565,3.565,0,0,0,0-5.041l-4.2-4.2a3.565,3.565,0,0,0-5.041,0l-4.2,4.2a3.569,3.569,0,0,0,0,5.041L88.8,41.707H76.911a6.163,6.163,0,0,1-6.13-6.891c.005-.041.009-.082.015-.122v0h0l.241-1.775a10.753,10.753,0,0,0,9.543,5.814.977.977,0,0,0,.977-.977V18.223a.977.977,0,0,0-.977-.977A10.715,10.715,0,0,0,72.695,20.7L74.523,7.227h2.508v4.3a.977.977,0,0,0,1.953,0v-4.3h6.445a.977.977,0,0,0,0-1.953H78.984V.977a.977.977,0,0,0-1.953,0v4.3H73.67a.977.977,0,0,0-.968.845L68.861,34.43h0l-.012.094c-.006.046-.011.093-.016.139A13.723,13.723,0,0,0,82.46,50h9.129a13.722,13.722,0,0,0,13.628-15.336Zm-9.061-21.7a5.234,5.234,0,0,1,.918,2.974c0,.165-.008.329-.023.491l-3.439-.921Zm.358,5.343a5.274,5.274,0,0,1-2.345,2.342l-.857-3.2Zm-5.143-.557.921,3.436a5.275,5.275,0,0,1-3.463-.894Zm6.646,4.4a8.8,8.8,0,0,1-11.7.652L87.429,21.7a7.229,7.229,0,0,0,6.29,1.211l.041-.008c.018,0,.036-.011.054-.017a7.224,7.224,0,0,0,3.741-11.311l1.114-1.114a8.791,8.791,0,0,1-.653,11.7ZM79.6,33.17a5.276,5.276,0,0,1-3.081-1.817L79.6,29.574Zm-4.029-3.525a5.254,5.254,0,0,1,0-3.313l2.869,1.656ZM79.6,26.4l-3.081-1.779A5.276,5.276,0,0,1,79.6,22.807Zm0-7.15V20.83a7.239,7.239,0,0,0-5.3,3.582c-.009.014-.019.028-.028.043s-.017.032-.025.048a7.209,7.209,0,0,0,0,6.97c.008.016.016.033.025.049s.015.021.022.033a7.24,7.24,0,0,0,5.3,3.593v1.576a8.79,8.79,0,0,1,0-17.47Zm6.645,17.138a1.613,1.613,0,0,1,0-2.279l4.2-4.2a1.611,1.611,0,0,1,2.279,0l4.2,4.2a1.611,1.611,0,0,1,0,2.279l-4.2,4.2a1.613,1.613,0,0,1-2.279,0Zm14.205,7.627a11.77,11.77,0,0,1-8.865,4.027H82.46a11.772,11.772,0,0,1-10.152-5.814,8.139,8.139,0,0,0,4.6,1.428H97.138a8.139,8.139,0,0,0,4.6-1.428A11.776,11.776,0,0,1,100.454,44.019Z" transform="translate(-68.737)" fill="#ea3f40"/></g><g transform="translate(97.403 27.486)"><path d="M363.937,281.746a.976.976,0,1,0,.286.69A.984.984,0,0,0,363.937,281.746Z" transform="translate(-362.27 -281.46)" fill="#ea3f40"/></g><g transform="translate(89.205 10.059)"><path d="M280,103.286a.976.976,0,1,0,.286.69A.982.982,0,0,0,280,103.286Z" transform="translate(-278.33 -103)" fill="#ea3f40"/></g><g transform="translate(83.823 14.363)"><path d="M224.887,147.366a.976.976,0,1,0,.286.69A.984.984,0,0,0,224.887,147.366Z" transform="translate(-223.22 -147.08)" fill="#ea3f40"/></g><g transform="translate(82.435 9.147)"><path d="M210.667,93.956a.976.976,0,1,0,.286.69A.98.98,0,0,0,210.667,93.956Z" transform="translate(-209 -93.67)" fill="#ea3f40"/></g><g transform="translate(81.9 38.415)"><path d="M205.187,393.656a.976.976,0,1,0,.286.69A.978.978,0,0,0,205.187,393.656Z" transform="translate(-203.52 -393.37)" fill="#ea3f40"/></g><g transform="translate(77.031 14.274)"><path d="M155.337,146.456a.976.976,0,1,0,.286.69A.98.98,0,0,0,155.337,146.456Z" transform="translate(-153.67 -146.17)" fill="#ea3f40"/></g></g></g></svg>