<svg xmlns="http://www.w3.org/2000/svg" width="25" height="25" viewBox="0 0 25 25"><path d="M25.5,8.4V12.3a.976.976,0,0,1-.977.977h-.642l-.411,3.662a.977.977,0,0,1-1.941-.218l.509-4.529a.977.977,0,0,1,.97-.868h.539V9.375H2.453v1.953H19.1a.977.977,0,0,1,0,1.953H4.1l.964,8.045a1.954,1.954,0,0,0,1.939,1.721H19.072a1.952,1.952,0,0,0,1.941-1.735.977.977,0,0,1,1.941.218A3.9,3.9,0,0,1,19.072,25H7.005a3.909,3.909,0,0,1-3.879-3.441l-.992-8.277H1.476A.976.976,0,0,1,.5,12.3V8.4a.976.976,0,0,1,.977-.977H4.94L10.1.4a.977.977,0,0,1,1.574,1.156L7.363,7.422H18.672L14.361,1.555A.977.977,0,0,1,15.935.4L21.1,7.422h3.428A.977.977,0,0,1,25.5,8.4ZM12.023,16.211v3.906a.977.977,0,0,0,1.953,0V16.211a.977.977,0,1,0-1.953,0Zm3.906,0v3.906a.977.977,0,0,0,1.953,0V16.211a.977.977,0,1,0-1.953,0Zm-7.812,0v3.906a.977.977,0,0,0,1.953,0V16.211a.977.977,0,0,0-1.953,0Zm0,0" transform="translate(-0.5 0)" fill="#fff"/></svg>