<svg xmlns="http://www.w3.org/2000/svg" width="20.456" height="23" viewBox="0 0 20.456 23"><g transform="translate(-26.9)"><g transform="translate(26.9)"><path d="M46.718,3.31H41.932V2.53A2.533,2.533,0,0,0,39.4,0H34.854a2.533,2.533,0,0,0-2.53,2.53v.78H27.538a.638.638,0,1,0,0,1.277h1.154v15A3.419,3.419,0,0,0,32.106,23H42.15a3.419,3.419,0,0,0,3.414-3.414v-15h1.154a.638.638,0,1,0,0-1.277ZM33.6,2.53a1.255,1.255,0,0,1,1.253-1.253H39.4A1.255,1.255,0,0,1,40.656,2.53v.78H33.6ZM44.287,19.586a2.141,2.141,0,0,1-2.137,2.137H32.106a2.141,2.141,0,0,1-2.137-2.137v-15H44.292v15Z" transform="translate(-26.9)" fill="#bcbec0"/><path d="M230.338,157.959a.636.636,0,0,0,.638-.638V146.038a.638.638,0,0,0-1.277,0v11.278A.64.64,0,0,0,230.338,157.959Z" transform="translate(-220.11 -138.525)" fill="#bcbec0"/><path d="M142.238,171.355a.636.636,0,0,0,.638-.638v-9.878a.638.638,0,1,0-1.277,0v9.878A.639.639,0,0,0,142.238,171.355Z" transform="translate(-136.176 -152.625)" fill="#bcbec0"/><path d="M318.438,171.355a.636.636,0,0,0,.638-.638v-9.878a.638.638,0,0,0-1.277,0v9.878A.636.636,0,0,0,318.438,171.355Z" transform="translate(-304.044 -152.625)" fill="#bcbec0"/></g></g></svg>