<svg xmlns="http://www.w3.org/2000/svg" width="19.412" height="25" viewBox="0 0 19.412 25"><g transform="translate(-35.625)"><path d="M90.257,11.765a5.882,5.882,0,1,0-5.882-5.882A5.889,5.889,0,0,0,90.257,11.765Zm0-9.412a3.529,3.529,0,1,1-3.529,3.529A3.533,3.533,0,0,1,90.257,2.353Z" transform="translate(-44.926)" fill="#fff"/><path d="M45.331,180a9.717,9.717,0,0,0-9.706,9.706v1.176H55.037v-1.176A9.717,9.717,0,0,0,45.331,180Zm-7.259,8.529a7.354,7.354,0,0,1,14.518,0Z" transform="translate(0 -165.882)" fill="#fff"/></g></svg>