<svg xmlns="http://www.w3.org/2000/svg" width="65" height="65" viewBox="0 0 65 65"><g transform="translate(-775 -485)"><g transform="translate(775 485)" fill="none" stroke="#f9a848" stroke-width="2"><circle cx="32.5" cy="32.5" r="32.5" stroke="none"/><circle cx="32.5" cy="32.5" r="31.5" fill="none"/></g><g transform="translate(790 499.438)"><path d="M31.76,17.814a5.969,5.969,0,0,0-1.212-.487,8.931,8.931,0,0,0-5.913-7.591c-3.212-1.331-6.1-1.059-8.367.729V8.509a9.326,9.326,0,0,0,2.186.267h0a6.611,6.611,0,0,0,3.508-.912c2.691-1.647,3.554-5.305,3.584-5.46a.964.964,0,0,0-.628-1.126A9.341,9.341,0,0,0,22.164.861a6.605,6.605,0,0,0-3.506.91,7.255,7.255,0,0,0-2.39,2.566V1.526a.964.964,0,1,0-1.928,0v8.941C12.073,8.678,9.181,8.4,5.97,9.736.594,11.963-1.27,16.782.864,22.959c1.74,5.053,5.671,9.919,9.348,11.572a5.645,5.645,0,0,0,4.538.282,4.18,4.18,0,0,0,.557-.282,3.826,3.826,0,0,0,.552.282,4.742,4.742,0,0,0,1.848.362A7.893,7.893,0,0,0,22.1,33.53c1.028.747,1.828,1.256,2.074,1.412a.973.973,0,0,0,1.028,0c.872-.546,8.552-5.478,9.489-9.725a6.212,6.212,0,0,0-2.926-7.4ZM19.667,3.413a4.734,4.734,0,0,1,2.5-.625,7.459,7.459,0,0,1,1.214.1A6.673,6.673,0,0,1,20.962,6.22a4.746,4.746,0,0,1-2.506.627,7.379,7.379,0,0,1-1.214-.1A6.788,6.788,0,0,1,19.667,3.413ZM16.588,33.025A2.862,2.862,0,0,1,15.9,32.6a.956.956,0,0,0-1.2,0,2.894,2.894,0,0,1-.692.431A3.744,3.744,0,0,1,11,32.772c-3.179-1.429-6.755-5.921-8.315-10.443C.4,15.713,3.616,12.8,6.716,11.516c2.258-.933,5.45-1.363,7.812,1.924.013.019.039.026.048.042a.964.964,0,0,0,.222.193.8.8,0,0,0,.1.067.935.935,0,0,0,.41.1.968.968,0,0,0,.411-.1.682.682,0,0,0,.1-.065.908.908,0,0,0,.226-.2c.015-.018.039-.025.048-.04,2.358-3.287,5.545-2.862,7.808-1.924a7.152,7.152,0,0,1,4.68,5.565,6.279,6.279,0,0,0-3.893,1.46,6.378,6.378,0,0,0-7.081-.731,6.248,6.248,0,0,0-3.235,5.472,5.885,5.885,0,0,0,.285,1.84c.557,2.524,3.385,5.239,5.824,7.186A4.49,4.49,0,0,1,16.588,33.025ZM32.828,24.7c-.621,2.806-5.682,6.65-8.146,8.276-.546-.362-1.229-.843-1.954-1.385a.977.977,0,0,0-.156-.117c-2.517-1.909-5.57-4.662-6.065-6.868a4.194,4.194,0,0,1-.214-1.326A4.316,4.316,0,0,1,18.531,19.5a4.236,4.236,0,0,1,2.078-.537,4.319,4.319,0,0,1,3.329,1.566.963.963,0,0,0,1.486,0A4.395,4.395,0,0,1,30.83,19.5a4.318,4.318,0,0,1,2.241,3.784A4.5,4.5,0,0,1,32.828,24.7Z" transform="translate(0)" fill="#f9a848"/></g></g></svg>