<?xml version="1.0" encoding="iso-8859-1"?>
<!-- Generator: Adobe Illustrator 19.0.0, SVG Export Plug-In . SVG Version: 6.00 Build 0)  -->
<svg version="1.1" id="Capa_1" xmlns="http://www.w3.org/2000/svg" xmlns:xlink="http://www.w3.org/1999/xlink" x="0px" y="0px"
	 viewBox="0 0 470 470" style="enable-background:new 0 0 470 470;" xml:space="preserve">
<g>
	<path d="M462.5,254.324h-16.518c2.64-7.544,4.018-15.53,4.018-23.588c0-39.287-31.962-71.249-71.249-71.249
		c-1.07,0-2.155,0.026-3.252,0.078c-13.226-19.11-35.28-30.801-58.647-30.801c-23.366,0-45.422,11.692-58.646,30.801
		c-1.097-0.052-2.182-0.078-3.252-0.078c-39.287,0-71.25,31.962-71.25,71.249c0,8.057,1.378,16.043,4.018,23.588h-27.073v-88.06
		c0-4.143-3.357-7.5-7.5-7.5s-7.5,3.357-7.5,7.5v88.06h-20.204l-52.746-52.746c-2.93-2.928-7.678-2.928-10.607,0
		c-2.929,2.93-2.929,7.678,0,10.607l42.139,42.139H40.178C36.785,246.974,35,238.903,35,230.736
		c0-31.016,25.233-56.249,56.249-56.249c2.033,0,4.152,0.121,6.298,0.36c2.917,0.324,5.764-1.086,7.271-3.61
		c10.114-16.945,28.634-27.473,48.331-27.473c15.343,0,29.679,6.069,40.366,17.089c2.884,2.974,7.632,3.046,10.605,0.162
		s3.046-7.632,0.162-10.605c-11.779-12.145-27.059-19.536-43.634-21.253V25c0-5.514,4.486-10,10-10s10,4.486,10,10v88.275
		c0,4.143,3.357,7.5,7.5,7.5s7.5-3.357,7.5-7.5V25c0-13.785-11.215-25-25-25s-25,11.215-25,25v104.175
		c-20.518,2.204-39.348,13.34-51.147,30.39c-1.096-0.052-2.182-0.078-3.252-0.078c-1.809,0-3.596,0.09-5.372,0.223V25
		c0-5.514,4.486-10,10-10s10,4.486,10,10v90.203c0,4.143,3.357,7.5,7.5,7.5s7.5-3.357,7.5-7.5V25c0-13.785-11.215-25-25-25
		s-25,11.215-25,25v137.47C41.488,171.257,20,198.528,20,230.736c0,8.058,1.377,16.044,4.018,23.588H7.5c-4.143,0-7.5,3.357-7.5,7.5
		c0,86.828,47.599,166.256,124.22,207.287c1.09,0.584,2.306,0.889,3.541,0.889h214.479c1.235,0,2.451-0.305,3.541-0.889
		C422.401,428.08,470,348.652,470,261.824C470,257.682,466.643,254.324,462.5,254.324z M198.703,230.736
		c0-31.016,25.233-56.249,56.25-56.249c2.032,0,4.151,0.121,6.298,0.36c2.917,0.324,5.764-1.086,7.271-3.61
		c10.113-16.945,28.633-27.473,48.33-27.473s38.217,10.527,48.331,27.473c1.507,2.525,4.354,3.936,7.271,3.61
		c2.146-0.239,4.265-0.36,6.298-0.36c31.016,0,56.249,25.233,56.249,56.249c0,8.167-1.785,16.237-5.178,23.588h-64.051
		l42.137-42.137c2.929-2.93,2.929-7.678,0-10.607c-2.93-2.927-7.678-2.929-10.607,0l-52.745,52.744h-20.204v-88.06
		c0-4.143-3.357-7.5-7.5-7.5s-7.5,3.357-7.5,7.5v88.06h-20.203l-52.744-52.743c-2.93-2.928-7.678-2.928-10.607,0
		c-2.929,2.93-2.929,7.678,0,10.607l42.136,42.136h-64.052C200.488,246.972,198.703,238.902,198.703,230.736z M340.341,455H129.659
		C61.08,417.535,17.752,347.049,15.127,269.324h439.746C452.248,347.049,408.92,417.535,340.341,455z"/>
</g>
<g>
</g>
<g>
</g>
<g>
</g>
<g>
</g>
<g>
</g>
<g>
</g>
<g>
</g>
<g>
</g>
<g>
</g>
<g>
</g>
<g>
</g>
<g>
</g>
<g>
</g>
<g>
</g>
<g>
</g>
</svg>
