<svg id="apple" xmlns="http://www.w3.org/2000/svg" width="64.985" height="79.809" viewBox="0 0 64.985 79.809">
  <path id="Path_36" data-name="Path 36" d="M101.824,42.405c-.1-10.107,8.243-14.954,8.615-15.2A18.638,18.638,0,0,0,95.846,19.3c-6.215-.629-12.127,3.659-15.281,3.659S72.552,19.395,67.4,19.488A19.526,19.526,0,0,0,50.889,29.494c-7.038,12.213-1.8,30.305,5.057,40.21C59.3,74.553,63.3,80,68.543,79.8c5.054-.2,6.965-3.27,13.075-3.27s7.827,3.27,13.175,3.17c5.438-.1,8.884-4.941,12.212-9.8a44.006,44.006,0,0,0,5.528-11.35A17.627,17.627,0,0,1,101.824,42.405ZM91.775,12.745A17.589,17.589,0,0,0,95.927,0c-4.012.163-8.875,2.672-11.754,6.044-2.583,2.991-4.844,7.765-4.238,12.348C84.414,18.742,88.986,16.116,91.775,12.745Z" transform="translate(-47.548 0)" fill="#fff"/>
</svg>
