<svg xmlns="http://www.w3.org/2000/svg" width="107.366" height="107.18" viewBox="0 0 107.366 107.18">
  <g id="Group_67" data-name="Group 67" transform="translate(-511.145 -1477.82)">
    <path id="Path_84" data-name="Path 84" d="M39.7,317.837c2.991,10.691,11.48,20.039,22.27,22.647a28.033,28.033,0,0,0,27.518-9.119c4.408-5.3,3.846-17.15,11.84-22.2s19.883-4.537,24.126-10.264c4.787-6.461,3.184-16.106-1.961-22.286s-13-9.45-20.82-11.338a82.364,82.364,0,0,0-17.883-2.289c-9.249-.163-18.808,1.353-26.614,6.317a42,42,0,0,0-14.28,16.28C38.772,295.436,36.708,307.147,39.7,317.837Z" transform="matrix(-0.259, -0.966, 0.966, -0.259, 290.337, 1690.073)" fill="#fff0a9"/>
    <path id="Path_56" data-name="Path 56" d="M0,392H2.617v2.617H0Zm0,0" transform="translate(540 1172.598)" fill="#ea3f40"/>
    <path id="Path_57" data-name="Path 57" d="M439.765,192.5q0,.937-.046,1.866l2.617.13q.046-1,.046-2c0-.241,0-.481-.01-.723l-2.617.073c.01.217.01.433.01.65Zm0,0" transform="translate(172.203 1340.072)" fill="#ea3f40"/>
    <path id="Path_58" data-name="Path 58" d="M368.34,68.806a23.459,23.459,0,0,1,2.266,7.365l2.593-.35a26.073,26.073,0,0,0-2.512-8.185,22.615,22.615,0,0,0-12.5-11.2l-.9,2.459a19.994,19.994,0,0,1,11.05,9.906Zm0,0" transform="translate(241.15 1453.271)" fill="#ea3f40"/>
    <path id="Path_59" data-name="Path 59" d="M66.587,52.385,66.168,49.8A22.445,22.445,0,0,0,51.2,59.227l2.15,1.493A19.844,19.844,0,0,1,66.587,52.385Zm0,0" transform="translate(497.175 1458.826)" fill="#ea3f40"/>
    <path id="Path_60" data-name="Path 60" d="M77.2,39.255h-8.6a34.61,34.61,0,0,0,.746-7.164,20.95,20.95,0,0,0-2.2-9.323,17.507,17.507,0,0,0-26.51-5.916,20.861,20.861,0,0,1,6.083-13.31l-1.85-1.85a23.629,23.629,0,0,0-4.6,6.543A13.1,13.1,0,0,0,28.133,0a1.309,1.309,0,0,0-1.309,1.309,13.1,13.1,0,0,0,11.5,12.98,23.938,23.938,0,0,0-.306,2.673l-.047-.038a17.515,17.515,0,0,0-26.615,5.844,20.858,20.858,0,0,0-1.309,3.4H5.234A5.234,5.234,0,0,0,0,31.4v9.16a1.309,1.309,0,0,0,1.309,1.309H10.6a34.691,34.691,0,0,0,1.621,4.449l5.833,12.961a12.566,12.566,0,0,0,3.872,4.835H5.234v2.617H78.511V64.117H56.586a12.561,12.561,0,0,0,3.878-4.831l1.953-4.329h10.86a5.234,5.234,0,0,0,5.234-5.234v-9.16A1.309,1.309,0,0,0,77.2,39.255ZM29.529,2.71A10.491,10.491,0,0,1,38.5,11.684,10.493,10.493,0,0,1,29.529,2.71ZM2.617,31.4a2.617,2.617,0,0,1,2.617-2.617h6.543V31.4h2.617V28.787h3.926V31.4h2.617V28.787h3.926V31.4h2.617V28.787H31.4V31.4h2.617V28.787h3.926V31.4h2.617V28.787h4.653a5.069,5.069,0,0,0,0,5.234H5.234a5.192,5.192,0,0,0-2.617.7Zm44.489,0a2.617,2.617,0,0,1,2.617-2.617h2.617v5.234H49.724A2.617,2.617,0,0,1,47.106,31.4ZM2.617,39.255a2.617,2.617,0,0,1,2.617-2.617H9.487q.175,1.319.447,2.617Zm55.46,18.956a10.013,10.013,0,0,1-12.3,5.391l-6.108-2.036a1.316,1.316,0,0,0-.827,0L32.734,63.6a10.013,10.013,0,0,1-12.3-5.391L14.6,45.257a31.936,31.936,0,0,1-2.475-8.619H53.649a1.309,1.309,0,0,0,1.309-1.309V27.479a1.309,1.309,0,0,0-1.309-1.309H12.783a18.177,18.177,0,0,1,.916-2.232,14.9,14.9,0,0,1,22.637-4.972l2.1,1.682a1.309,1.309,0,0,0,1.636,0l2.1-1.675a14.9,14.9,0,0,1,22.638,4.972,18.324,18.324,0,0,1,1.921,8.146,31.822,31.822,0,0,1-2.506,12.4H24.862A1.309,1.309,0,0,0,23.553,45.8v7.851a1.309,1.309,0,0,0,1.309,1.309H59.537ZM31.4,49.723a2.617,2.617,0,0,1-2.617,2.617H26.17V47.106h2.617A2.617,2.617,0,0,1,31.4,49.723Zm44.489,0a2.617,2.617,0,0,1-2.617,2.617H66.734V49.723H64.117V52.34H60.192V49.723H57.575V52.34H53.649V49.723H51.032V52.34H47.106V49.723H44.489V52.34H40.564V49.723H37.947V52.34H33.294a5.069,5.069,0,0,0,0-5.234H73.277a5.192,5.192,0,0,0,2.617-.7Zm-2.617-5.234H67.057c.331-.863.619-1.737.878-2.617h7.958a2.617,2.617,0,0,1-2.617,2.617Zm0,0" transform="translate(540 1500.481)" fill="#ea3f40"/>
  </g>
</svg>
