<svg xmlns="http://www.w3.org/2000/svg" width="86.135" height="78.628" viewBox="0 0 86.135 78.628">
  <g id="Group_66" data-name="Group 66" transform="translate(-528 -2171.372)">
    <path id="Path_109" data-name="Path 109" d="M1.268,50.268c2.741,9.8,10.519,18.362,20.407,20.752a25.687,25.687,0,0,0,25.216-8.356c4.039-4.857,3.524-15.715,10.849-20.34s18.219-4.157,22.107-9.4C84.234,27,82.764,18.161,78.05,12.5S66.134,3.839,58.972,2.109A75.473,75.473,0,0,0,42.585.011C34.11-.139,25.351,1.251,18.2,5.8A38.481,38.481,0,0,0,5.113,20.716C.419,29.741-1.472,40.472,1.268,50.268Z" transform="translate(528 2178.318)" fill="#fff0a9"/>
    <g id="Group_40" data-name="Group 40" transform="translate(586.729 2171.372)">
      <g id="Group_39" data-name="Group 39">
        <path id="Path_112" data-name="Path 112" d="M337.872,36.429a1.141,1.141,0,0,0-1.44-.729l-.405.133V35.39a1.141,1.141,0,0,0-2.282,0v.443l-.405-.133a1.141,1.141,0,1,0-.711,2.168l.42.138-.265.368a1.142,1.142,0,0,0,.925,1.808c.665,0,.924-.47,1.176-.821l.249.346a1.141,1.141,0,1,0,1.852-1.333l-.265-.368.42-.138A1.141,1.141,0,0,0,337.872,36.429Z" transform="translate(-331.843 -34.249)" fill="#f9a848"/>
      </g>
    </g>
    <g id="Group_42" data-name="Group 42" transform="translate(598.011 2183.618)">
      <g id="Group_41" data-name="Group 41">
        <path id="Path_113" data-name="Path 113" d="M412.035,116.934a1.141,1.141,0,0,0-1.44-.729l-.405.133v-.443a1.141,1.141,0,1,0-2.282,0v.443l-.405-.133a1.141,1.141,0,1,0-.711,2.168l.42.138-.265.368a1.141,1.141,0,0,0,1.852,1.333l.249-.346c.24.333.5.821,1.176.821a1.142,1.142,0,0,0,.925-1.808l-.265-.368.421-.138A1.141,1.141,0,0,0,412.035,116.934Z" transform="translate(-406.007 -114.754)" fill="#f9a848"/>
      </g>
    </g>
    <g id="Group_44" data-name="Group 44" transform="translate(587.665 2182.02)">
      <g id="Group_43" data-name="Group 43" transform="translate(0 0)">
        <circle id="Ellipse_101" data-name="Ellipse 101" cx="1.141" cy="1.141" r="1.141" fill="#f9a848"/>
      </g>
    </g>
    <g id="Group_46" data-name="Group 46" transform="translate(605.92 2200.49)">
      <g id="Group_45" data-name="Group 45">
        <circle id="Ellipse_102" data-name="Ellipse 102" cx="1.141" cy="1.141" r="1.141" fill="#f9a848"/>
      </g>
    </g>
    <g id="Group_48" data-name="Group 48" transform="translate(594.054 2191.756)">
      <g id="Group_47" data-name="Group 47">
        <circle id="Ellipse_103" data-name="Ellipse 103" cx="1.141" cy="1.141" r="1.141" fill="#f9a848"/>
      </g>
    </g>
    <g id="Group_50" data-name="Group 50" transform="translate(606.378 2176.848)">
      <g id="Group_49" data-name="Group 49" transform="translate(0 0)">
        <circle id="Ellipse_104" data-name="Ellipse 104" cx="1.141" cy="1.141" r="1.141" fill="#f9a848"/>
      </g>
    </g>
    <g id="Group_52" data-name="Group 52" transform="translate(572.531 2181.446)">
      <g id="Group_51" data-name="Group 51" transform="translate(0 0)">
        <path id="Path_114" data-name="Path 114" d="M252.42,104.889a2.269,2.269,0,0,0-1.436-.809,1.141,1.141,0,0,0-.329,2.259l-2.035,1.984a1.141,1.141,0,0,0-.329,1.01l.481,2.8h0c-3.352-1.764-2.763-1.752-6.09,0h0l0,0,.481-2.8a1.144,1.144,0,0,0-.327-1.01l-2.037-1.984,2.814-.409a1.142,1.142,0,0,0,.858-.624l1.26-2.55.5,1.006a1.142,1.142,0,1,0,2.047-1.01l-.5-1.005a2.284,2.284,0,0,0-4.094,0l-.992,2.011c-2.263.329-2.971.283-3.657,1.132a2.284,2.284,0,0,0-.517,1.456c-.009,1.183.683,1.62,2.3,3.193l-.379,2.212a2.272,2.272,0,0,0,.657,2.02,2.284,2.284,0,0,0,1.594.65c.712,0,.963-.214,3.044-1.308h0l1.985,1.043a2.284,2.284,0,0,0,3.344-2.012,2.24,2.24,0,0,0-.033-.392l-.379-2.212,1.606-1.565A2.279,2.279,0,0,0,252.42,104.889Z" transform="translate(-238.511 -100.475)" fill="#f9a848"/>
      </g>
    </g>
    <g id="Group_54" data-name="Group 54" transform="translate(536.247 2196.201)">
      <g id="Group_53" data-name="Group 53" transform="translate(0)">
        <path id="Path_115" data-name="Path 115" d="M76.746,207.4H61.561l.541-.528a2.57,2.57,0,0,0-1.424-4.383l-2.93-.426-1.31-2.655a2.57,2.57,0,0,0-4.609,0l-1.311,2.655-2.93.426a2.57,2.57,0,0,0-1.424,4.383l.541.528H42.623a2.279,2.279,0,0,0-.655-1.846L35.514,199.1a2.284,2.284,0,0,0-3.227,0l-3.971,3.971-4.374-4.374a4.183,4.183,0,0,0-7,1.875l-2.287,8.536a5.668,5.668,0,0,0-3.017,3.017L3.1,214.41a4.183,4.183,0,0,0-1.875,7L5.6,225.783l-3.971,3.971a2.281,2.281,0,0,0,0,3.227l6.454,6.454a2.284,2.284,0,0,0,3.227,0l29.756-29.757H75.606v27a1.146,1.146,0,0,1-1.141,1.141H35.978a1.146,1.146,0,0,1-1.141-1.141V222.13a1.141,1.141,0,0,0-2.282,0v14.554a3.423,3.423,0,0,0,3.423,3.423H74.465a3.422,3.422,0,0,0,3.423-3.423V208.538A1.143,1.143,0,0,0,76.746,207.4Zm-57.6-6.236a1.9,1.9,0,0,1,3.181-.853l4.374,4.374-5.274,5.274,1.377-5.138a1.141,1.141,0,1,0-2.2-.591l-1.325,4.946a5.664,5.664,0,0,0-2.136-.519Zm-3.224,9.91a3.406,3.406,0,0,1,3.453.937l-4.836,4.836A3.423,3.423,0,0,1,15.924,211.071ZM2.841,219.8a1.9,1.9,0,0,1,.852-3.182l7.494-2.008a5.668,5.668,0,0,0,.519,2.136l-4.946,1.325a1.141,1.141,0,0,0,.591,2.2l5.138-1.377L7.215,224.17ZM9.7,237.822l-6.454-6.454,4.778-4.778h0l21.1-21.1h0l4.778-4.778,6.455,6.453ZM60.51,205.235,58.292,207.4H49.974c-2.384-2.324-2.367-2.223-2.291-2.457s-.036-.157,3.756-.708a1.14,1.14,0,0,0,.859-.624c1.7-3.447,1.588-3.354,1.834-3.354s.133-.093,1.834,3.354a1.141,1.141,0,0,0,.859.624l3.524.512A.287.287,0,0,1,60.51,205.235Z" transform="translate(0 -197.466)" fill="#f9a848"/>
      </g>
    </g>
  </g>
</svg>
