<svg xmlns="http://www.w3.org/2000/svg" width="71.662" height="74.717" viewBox="0 0 71.662 74.717">
  <g id="Group_74" data-name="Group 74" transform="translate(-329 -394.643)">
    <path id="Path_102" data-name="Path 102" d="M262.249,319.8a19.618,19.618,0,0,1-2.957-9.818,18.964,18.964,0,0,1,1.964-8.464,14.581,14.581,0,0,1,1.385-2.237c2.526-3.448,6.246-6.581,8.184-10.555,2.385-4.9,3.346-9.77,5.813-14.161,5.113-9.1,13.923-14.51,17.925-15.1a17.523,17.523,0,0,1,9.593,1.643,35.02,35.02,0,0,1,9.97,7.041,63.262,63.262,0,0,1,4.819,5.263,59.832,59.832,0,0,1,7.836,12.232c3.133,6.61,4.882,14.034,3.9,21.283a21.585,21.585,0,0,1-1.382,5.33,23.853,23.853,0,0,1-3.55,5.724,39.543,39.543,0,0,1-6.64,6.484,47.213,47.213,0,0,1-30.442,9.542C275.073,333.5,266.279,326.457,262.249,319.8Z" transform="translate(69.709 135.314)" fill="#f8d6d5"/>
    <g id="email" transform="translate(329.168 411.782)">
      <g id="Group_26" data-name="Group 26" transform="translate(0 0)">
        <g id="Group_25" data-name="Group 25" transform="translate(0 0)">
          <path id="Path_100" data-name="Path 100" d="M42.079,47.065H6.418A6.424,6.424,0,0,0,0,53.481V80.227a6.424,6.424,0,0,0,6.416,6.416H42.079A6.424,6.424,0,0,0,48.5,80.227V53.481A6.424,6.424,0,0,0,42.079,47.065Zm2.5,33.162a2.5,2.5,0,0,1-2.5,2.5H6.418a2.5,2.5,0,0,1-2.5-2.5V53.481a2.5,2.5,0,0,1,2.5-2.5H42.079a2.5,2.5,0,0,1,2.5,2.5Z" transform="translate(-0.002 -47.065)" fill="#ea3f40"/>
        </g>
      </g>
      <g id="Group_28" data-name="Group 28" transform="translate(0 4.457)">
        <g id="Group_27" data-name="Group 27" transform="translate(0 0)">
          <path id="Path_101" data-name="Path 101" d="M48.14,94.961a1.959,1.959,0,0,0-2.728-.481L24.248,109.295,3.083,94.48A1.959,1.959,0,0,0,.837,97.689l22.288,15.6a1.959,1.959,0,0,0,2.247,0l22.288-15.6A1.959,1.959,0,0,0,48.14,94.961Z" transform="translate(-0.001 -94.125)" fill="#ea3f40"/>
        </g>
      </g>
    </g>
  </g>
</svg>
