<svg id="Group_73" data-name="Group 73" xmlns="http://www.w3.org/2000/svg" width="77.635" height="77.635" viewBox="0 0 77.635 77.635">
  <path id="Path_92" data-name="Path 92" d="M38.818,0A38.818,38.818,0,1,1,0,38.818,38.818,38.818,0,0,1,38.818,0Z" fill="#2a7af3"/>
  <g id="envelope" transform="translate(20.185 23.291)">
    <g id="Group_20" data-name="Group 20" transform="translate(0 0)">
      <path id="Path_90" data-name="Path 90" d="M3.726,64.221q.737.52,4.441,3.087t5.675,3.953q.217.152.92.661t1.17.823q.466.314,1.127.7a6.535,6.535,0,0,0,1.246.584,3.432,3.432,0,0,0,1.083.195h.044a3.435,3.435,0,0,0,1.083-.195,6.542,6.542,0,0,0,1.245-.584q.661-.39,1.126-.7t1.17-.823q.7-.51.921-.661,1.993-1.386,10.138-7.04a10.29,10.29,0,0,0,2.642-2.664,5.72,5.72,0,0,0,1.062-3.27,3.5,3.5,0,0,0-3.466-3.466H3.466A3.094,3.094,0,0,0,.9,55.946,4.372,4.372,0,0,0,0,58.762a5.06,5.06,0,0,0,1.191,2.957A10.752,10.752,0,0,0,3.726,64.221Z" transform="translate(0 -54.82)" fill="#fff"/>
      <path id="Path_91" data-name="Path 91" d="M36.651,186.321q-7.1,4.808-10.787,7.473-1.235.909-2,1.419a12.366,12.366,0,0,1-2.047,1.04,6.234,6.234,0,0,1-2.382.531h-.044A6.236,6.236,0,0,1,17,196.253a12.372,12.372,0,0,1-2.047-1.04q-.769-.509-2-1.419-2.924-2.144-10.766-7.473A11.474,11.474,0,0,1,0,184.437v17.2a3.337,3.337,0,0,0,1.018,2.448A3.337,3.337,0,0,0,3.466,205.1H35.352a3.476,3.476,0,0,0,3.466-3.466v-17.2A11.946,11.946,0,0,1,36.651,186.321Z" transform="translate(0 -174.603)" fill="#fff"/>
    </g>
  </g>
</svg>
