<svg xmlns="http://www.w3.org/2000/svg" width="68.075" height="79.808" viewBox="0 0 68.075 79.808">
  <g id="Group_13" data-name="Group 13" transform="translate(0)">
    <g id="android-logo">
      <g id="Group_11" data-name="Group 11">
        <g id="Group_10" data-name="Group 10">
          <path id="Path_37" data-name="Path 37" d="M42.1,164.715h-.2a4.771,4.771,0,0,0-4.758,4.758v20.714a4.767,4.767,0,0,0,4.758,4.761H42.1a4.771,4.771,0,0,0,4.758-4.761V169.473A4.778,4.778,0,0,0,42.1,164.715Z" transform="translate(-37.134 -138.691)" fill="#fff"/>
          <path id="Path_38" data-name="Path 38" d="M113.085,202.232a4.378,4.378,0,0,0,4.372,4.365h4.672v11.189a4.772,4.772,0,0,0,4.758,4.764h.2a4.773,4.773,0,0,0,4.764-4.764V206.6h6.53v11.189a4.778,4.778,0,0,0,4.764,4.764h.2a4.771,4.771,0,0,0,4.761-4.764V206.6h4.676a4.377,4.377,0,0,0,4.369-4.365V169.525H113.085Z" transform="translate(-101.085 -142.742)" fill="#fff"/>
          <path id="Path_39" data-name="Path 39" d="M145.317,6.949l3.711-5.729A.788.788,0,0,0,148.8.13a.782.782,0,0,0-1.091.232l-3.848,5.927a25.441,25.441,0,0,0-19.034,0L120.984.362a.791.791,0,0,0-1.329.859l3.715,5.729c-6.7,3.282-11.212,9.467-11.212,16.563,0,.436.027.866.065,1.292h44.246c.038-.426.061-.855.061-1.292C156.529,16.417,152.01,10.231,145.317,6.949ZM124.085,17.207a2.125,2.125,0,1,1,2.13-2.127A2.126,2.126,0,0,1,124.085,17.207Zm20.513,0a2.125,2.125,0,1,1,2.127-2.127A2.126,2.126,0,0,1,144.6,17.207Z" transform="translate(-100.304 0)" fill="#fff"/>
          <path id="Path_40" data-name="Path 40" d="M411.431,164.715h-.2a4.777,4.777,0,0,0-4.764,4.758v20.714a4.775,4.775,0,0,0,4.764,4.761h.2a4.769,4.769,0,0,0,4.757-4.761V169.473A4.774,4.774,0,0,0,411.431,164.715Z" transform="translate(-348.117 -138.691)" fill="#fff"/>
        </g>
      </g>
    </g>
  </g>
</svg>
