<svg xmlns="http://www.w3.org/2000/svg" width="106.355" height="107.18" viewBox="0 0 106.355 107.18">
  <g id="Group_69" data-name="Group 69" transform="translate(-514.145 -1950)">
    <path id="Path_108" data-name="Path 108" d="M39.7,317.837c2.991,10.691,11.48,20.039,22.27,22.647a28.033,28.033,0,0,0,27.518-9.119c4.408-5.3,3.846-17.15,11.84-22.2s19.883-4.537,24.126-10.264c4.787-6.461,3.184-16.106-1.961-22.286s-13-9.45-20.82-11.338a82.364,82.364,0,0,0-17.883-2.289c-9.249-.163-18.808,1.353-26.614,6.317a42,42,0,0,0-14.28,16.28C38.772,295.436,36.708,307.147,39.7,317.837Z" transform="matrix(-0.259, -0.966, 0.966, -0.259, 293.337, 2162.253)" fill="#f8d6d5"/>
    <path id="Path_116" data-name="Path 116" d="M68.883,37.878h-2.46A10.612,10.612,0,0,0,56.41,23.753q-.239,0-.484.012a10.609,10.609,0,0,0-17.469,0q-.245-.012-.484-.012A10.611,10.611,0,0,0,27.959,37.878H23.926V24.763a1.117,1.117,0,1,0-2.234,0V37.878H18.683l-7.856-7.856a1.117,1.117,0,0,0-1.58,1.58l6.276,6.276H5.984A8.379,8.379,0,0,1,13.59,25.987a8.514,8.514,0,0,1,.938.054,1.118,1.118,0,0,0,1.083-.538,8.425,8.425,0,0,1,7.2-4.092,8.308,8.308,0,0,1,6.012,2.545,1.117,1.117,0,1,0,1.6-1.555,10.511,10.511,0,0,0-6.5-3.165V3.723a1.489,1.489,0,0,1,2.979,0V16.871a1.117,1.117,0,1,0,2.234,0V3.723a3.723,3.723,0,0,0-7.447,0V19.239a10.687,10.687,0,0,0-7.618,4.526c-.163-.008-.325-.012-.484-.012-.269,0-.536.013-.8.033V3.723a1.489,1.489,0,1,1,2.979,0V17.158a1.117,1.117,0,0,0,2.234,0V3.723a3.723,3.723,0,0,0-7.447,0V24.2a10.61,10.61,0,0,0-6.979,13.68H1.117A1.117,1.117,0,0,0,0,39,34.972,34.972,0,0,0,18.5,69.868a1.117,1.117,0,0,0,.527.132H50.972a1.117,1.117,0,0,0,.527-.132A34.972,34.972,0,0,0,70,39,1.117,1.117,0,0,0,68.883,37.878ZM29.594,34.365a8.387,8.387,0,0,1,8.378-8.378,8.518,8.518,0,0,1,.938.054,1.118,1.118,0,0,0,1.083-.538,8.377,8.377,0,0,1,14.4,0,1.117,1.117,0,0,0,1.083.538,8.514,8.514,0,0,1,.938-.054,8.379,8.379,0,0,1,7.606,11.891h-9.54L60.752,31.6a1.117,1.117,0,1,0-1.58-1.58l-7.856,7.855H48.308V24.763a1.117,1.117,0,1,0-2.234,0V37.878H43.065l-7.855-7.855a1.117,1.117,0,0,0-1.58,1.58l6.276,6.276h-9.54A8.393,8.393,0,0,1,29.594,34.365Zm21.1,33.4H19.311A32.736,32.736,0,0,1,2.253,40.112H67.747A32.736,32.736,0,0,1,50.689,67.766Z" transform="translate(550 1970)" fill="#f9a848" stroke="#f9a848" stroke-width="1"/>
  </g>
</svg>
