<svg xmlns="http://www.w3.org/2000/svg" width="77.635" height="77.635" viewBox="0 0 77.635 77.635">
  <g id="line" transform="translate(0)">
    <rect id="Rectangle_17" data-name="Rectangle 17" width="77.635" height="77.635" rx="38.818" fill="#00c200"/>
    <g id="Group_22" data-name="Group 22" transform="translate(10.392 13.799)">
      <path id="Path_93" data-name="Path 93" d="M117.624,95.524a14.234,14.234,0,0,0,.225-1.719,21.632,21.632,0,0,0-.027-2.208c-.69-11.994-13.134-21.55-28.384-21.55-15.693,0-28.414,10.118-28.414,22.6,0,11.473,10.747,20.948,24.671,22.406a1.545,1.545,0,0,1,1.371,1.708l-.593,5.336a1.549,1.549,0,0,0,2.215,1.563c11.764-5.677,18.8-11.518,23-16.578.764-.921,3.257-4.413,3.765-5.33A19.023,19.023,0,0,0,117.624,95.524Z" transform="translate(-61.025 -70.046)" fill="#fff"/>
      <path id="Path_94" data-name="Path 94" d="M121.946,176.147v-9.52a1.453,1.453,0,0,0-1.453-1.453h0a1.453,1.453,0,0,0-1.453,1.453V177.6a1.453,1.453,0,0,0,1.453,1.453h5.814a1.453,1.453,0,0,0,1.453-1.453h0a1.454,1.454,0,0,0-1.453-1.453Z" transform="translate(-109.156 -148.969)" fill="#00c500"/>
      <path id="Path_95" data-name="Path 95" d="M180.105,179.054h-.635a1.136,1.136,0,0,1-1.136-1.136V166.31a1.136,1.136,0,0,1,1.136-1.136h.635a1.136,1.136,0,0,1,1.136,1.136v11.609A1.136,1.136,0,0,1,180.105,179.054Z" transform="translate(-158.35 -148.969)" fill="#00c500"/>
      <path id="Path_96" data-name="Path 96" d="M216.625,166.627v6.7s-5.8-7.571-5.893-7.671a1.447,1.447,0,0,0-1.14-.486,1.493,1.493,0,0,0-1.4,1.512V177.6a1.453,1.453,0,0,0,1.453,1.453h0A1.453,1.453,0,0,0,211.1,177.6v-6.663s5.893,7.637,5.979,7.719a1.445,1.445,0,0,0,.983.4,1.507,1.507,0,0,0,1.467-1.514V166.627a1.453,1.453,0,0,0-1.453-1.453h0A1.454,1.454,0,0,0,216.625,166.627Z" transform="translate(-183.124 -148.968)" fill="#00c500"/>
      <path id="Path_97" data-name="Path 97" d="M296.259,166.627h0a1.453,1.453,0,0,0-1.453-1.453h-5.814a1.453,1.453,0,0,0-1.453,1.453V177.6a1.453,1.453,0,0,0,1.453,1.453h5.814a1.453,1.453,0,0,0,1.453-1.453h0a1.453,1.453,0,0,0-1.453-1.453h-4.36v-2.58h4.36a1.453,1.453,0,0,0,1.453-1.453h0a1.453,1.453,0,0,0-1.453-1.453h-4.36v-2.58h4.36A1.453,1.453,0,0,0,296.259,166.627Z" transform="translate(-248.951 -148.969)" fill="#00c500"/>
    </g>
  </g>
</svg>
