<svg xmlns="http://www.w3.org/2000/svg" width="77.635" height="77.635" viewBox="0 0 77.635 77.635">
  <g id="linkedin" transform="translate(0)">
    <path id="Path_103" data-name="Path 103" d="M38.818,0A38.818,38.818,0,1,1,0,38.818,38.818,38.818,0,0,1,38.818,0Z" fill="#0e76a8"/>
    <path id="Path_104" data-name="Path 104" d="M81.972,106.757h7.269V82.529H81.972ZM110.289,81.69a10.91,10.91,0,0,0-8.923,4.132V82.45h-7.3v24.307h7.3V93.612a5.77,5.77,0,0,1,5.733-5.488c3.188,0,3.974,2.71,3.974,5.42v13.21h7.269V93C118.342,83.451,113.819,81.69,110.289,81.69ZM85.572,80.108a3.639,3.639,0,1,0-3.639-3.639A3.641,3.641,0,0,0,85.572,80.108Z" transform="translate(-60.098 -53.421)" fill="#fff"/>
  </g>
</svg>
