<svg xmlns="http://www.w3.org/2000/svg" width="60" height="19" viewBox="0 0 60 19"><g transform="translate(818 -845)"><path d="M-797.02,845.3l-4.08,18.505h4.946L-792.2,845.3Z" transform="translate(4.009 0.071)" fill="#12489a"/><path d="M-800.195,845.322l-5.07,12.54-2.1-10.714a2.218,2.218,0,0,0-2.226-1.826h-8.284l-.124.487a22.257,22.257,0,0,1,4.822,1.583c.742.365.866.731,1.113,1.583l3.833,14.731h5.193l7.913-18.506h-5.07Z" transform="translate(0 0.047)" fill="#12489a"/><path d="M-769.9,845.3h-4.2a2.167,2.167,0,0,0-2.1,1.339l-7.3,17.166h5.07l.989-2.8h6.182l.618,2.8h4.451Zm-5.935,11.931,2.6-6.939,1.484,6.939Z" transform="translate(8.189 0.071)" fill="#12489a"/><path d="M-787.352,850.481c0-.609.618-1.34,2.1-1.583a9.288,9.288,0,0,1,4.822.852l.866-3.9a14.511,14.511,0,0,0-4.575-.853c-4.822,0-8.161,2.558-8.161,6.09,0,2.68,2.473,4.141,4.2,4.994,1.855.852,2.473,1.461,2.473,2.314,0,1.218-1.484,1.827-2.968,1.827a9.337,9.337,0,0,1-4.946-1.218l-.865,4.019a14.918,14.918,0,0,0,5.44.974c5.07,0,8.408-2.436,8.408-6.333C-780.552,853.038-787.476,852.673-787.352,850.481Z" transform="translate(5.601)" fill="#12489a"/></g></svg>